<?xml version="1.0" encoding="utf-8"?>
<!-- Generator: Adobe Illustrator 26.1.0, SVG Export Plug-In . SVG Version: 6.00 Build 0)  -->
<svg version="1.1" id="Layer_1" xmlns="http://www.w3.org/2000/svg" xmlns:xlink="http://www.w3.org/1999/xlink" x="0px" y="0px"
	 viewBox="0 0 1000 950" style="enable-background:new 0 0 1000 950;" xml:space="preserve">
<style type="text/css">
	.st0{fill:#B7E1E2;}
	.st1{fill:#859D9E;}
	.st2{opacity:0.15;}
	.st3{fill:#FFFFFF;}
	.st4{opacity:0.8;fill:#FFFFFF;}
	.st5{fill:#F2AE03;}
	.st6{opacity:0.1;}
	.st7{fill:#009ADE;}
	.st8{fill:#7F7B79;}
</style>
<g>
	<polygon class="st8" points="1.0271466,373.8416443 1.0271466,825.9440918 499.9997864,719.1257935 998.9728394,825.9440918 
		998.9728394,373.8416443 	"/>
	<rect x="1.0271466" class="st8" width="997.9456787" height="351.7333069"/>
	<polygon class="st8" points="988.2706909,864.2282715 998.9728394,866.4941406 998.9728394,847.2442017 988.2706909,844.9783325 
		501.9511414,742.0061646 500.0021057,741.59552 15.1595278,844.3590088 1.0271635,847.3543091 1.0271635,866.6054077 
		15.1595278,863.6098022 500.0021057,760.8414917 	"/>
	<g class="st6">
		<polygon points="998.9728394,825.9440308 998.9728394,373.8415833 499.9999695,373.8415833 499.9999695,719.1257324 		"/>
		<rect x="499.9999695" width="498.9728699" height="351.7332458"/>
		<polygon points="500.0021057,760.8414307 988.270752,864.2282104 998.9728394,866.4940796 998.9728394,847.2440796 
			988.270752,844.9782104 501.9511108,742.0060425 500.0021057,741.5953979 499.9999695,741.5958862 499.9999695,760.8418579 		"/>
	</g>
	<g>
		<g>
			<path class="st3" d="M415.2796326,64.3117371h39.4190979v4.0307236h-17.3526001v45.7042999h-4.7138977V68.4107819h-17.3526001
				V64.3117371L415.2796326,64.3117371z"/>
			<path class="st3" d="M459.3442993,64.3117371h4.7138977v21.5882797h29.513092V64.3117371h4.7138977v49.7350235h-4.7138977
				v-24.047699h-29.513092v24.047699h-4.7138977V64.3117371z"/>
			<path class="st3" d="M508.3961487,64.3117371h34.3636169v4.0307236h-29.5814209v17.9674606h27.6685181v4.0307236h-27.7368164
				v19.6070786H543.03302v4.0990372h-34.7051697V64.3117371H508.3961487z"/>
		</g>
		<g>
			<path class="st3" d="M415.2796326,237.4278717h31.5625916v4.0307159h-26.7803955v17.9674683h23.7744141v4.0307007h-23.8427429
				v23.7061157h-4.7138672V237.4278717z"/>
			<path class="st3" d="M473.4859619,236.4031219c15.576355,0,23.364563,12.2287903,23.364563,25.8922577
				c0,13.6634827-7.7881775,25.8922729-23.364563,25.8922729c-15.6446533,0-23.5011597-12.2287903-23.5011597-25.8922729
				C449.9848022,248.6319122,457.7729797,236.4031219,473.4859619,236.4031219z M473.4859619,284.1569214
				c13.1169434,0,18.6506348-10.9990845,18.6506348-21.8615417s-5.6020203-21.8615417-18.6506348-21.8615417
				c-13.1852112,0-18.7189331,10.9990845-18.7189331,21.8615417S460.3007507,284.1569214,473.4859619,284.1569214z"/>
			<path class="st3" d="M503.7505798,237.4278717h4.7138977v30.8111115c0,11.4773254,5.3287354,15.9179382,14.5515747,15.9179382
				c9.2911377,0,14.6199341-4.4406128,14.6199341-15.9179382v-30.8111115h4.7139282v31.8358917
				c0,10.2475891-5.5336914,18.9239197-19.3338013,18.9239197c-13.731781,0-19.2655029-8.6763306-19.2655029-18.9239197v-31.8358917
				H503.7505798z"/>
			<path class="st3" d="M551.9143066,237.4278717h5.260437l28.9665527,42.0834808h0.1366577v-42.0834808h4.7139282v49.7350311
				h-5.260498l-28.9665527-42.0834808h-0.1366577v42.0834808h-4.7138672V237.4278717z"/>
			<path class="st3" d="M601.0344238,237.4278717h17.2160034c15.0297852,0.3415833,22.8179932,8.4030304,22.8179932,24.8675079
				s-7.788208,24.5259094-22.8179932,24.8674927h-17.2160034V237.4278717z M605.7483521,283.1321716h10.1109619
				c14.2783203,0,20.4951782-5.943634,20.4951782-20.836792c0-14.8931732-6.2168579-20.836792-20.4951782-20.836792h-10.1109619
				V283.1321716z"/>
			<path class="st3" d="M663.2715454,237.4278717h5.260437l19.470459,49.7350311h-5.055481l-6.0802612-15.4397278h-22.6130371
				l-6.0119019,15.4397278h-5.055542L663.2715454,237.4278717z M655.7566528,267.6924438h19.5387573l-9.6327515-25.4823608
				L655.7566528,267.6924438z"/>
			<path class="st3" d="M682.468689,237.4278717h39.4191284v4.0307159h-17.3526001v45.7042847h-4.7139282v-45.7042847H682.468689
				V237.4278717L682.468689,237.4278717z"/>
			<path class="st3" d="M726.9432983,237.4278717h4.7139282v49.7350311h-4.7139282V237.4278717z"/>
			<path class="st3" d="M762.8782349,236.4031219c15.576355,0,23.364502,12.2287903,23.364502,25.8922577
				c0,13.6634827-7.788147,25.8922729-23.364502,25.8922729c-15.6447144,0-23.5012207-12.2287903-23.5012207-25.8922729
				C739.3770142,248.6319122,747.1652222,236.4031219,762.8782349,236.4031219z M762.8782349,284.1569214
				c13.1169434,0,18.6506348-10.9990845,18.6506348-21.8615417s-5.6020508-21.8615417-18.6506348-21.8615417
				c-13.1852417,0-18.7189941,10.9990845-18.7189941,21.8615417S749.6929932,284.1569214,762.8782349,284.1569214z"/>
			<path class="st3" d="M793.5527344,237.4278717h5.260437l28.9665527,42.0834808h0.1366577v-42.0834808h4.7139282v49.7350311
				h-5.260498l-28.9665527-42.0834808h-0.1366577v42.0834808h-4.7138672V237.4278717z"/>
		</g>
		<g>
			<path class="st3" d="M415.2796326,128.8716278h27.3952332v66.1311798h39.3507996v22.8179779h-66.8143616v-88.9491577H415.2796326
				z"/>
			<path class="st3" d="M499.993103,128.8716278h27.3952637v88.9491577H499.993103V128.8716278L499.993103,128.8716278z"/>
			<path class="st3" d="M547.8152466,128.8716278h28.0101318L601.7176514,176.4888h0.2732544v-47.6171722h25.892334v88.9491577
				h-26.6437988l-27.258606-48.5736237h-0.2733154v48.5736237h-25.8922729V128.8716278z"/>
			<path class="st3" d="M729.1977539,183.4571838c0,24.7991943-13.048584,36.4814453-40.512146,36.4814453
				c-27.3952637,0-40.6488037-11.6822662-40.6488037-36.4814453v-54.585556h27.3952026v48.4369965
				c0,8.9495697-0.1365967,20.4268799,13.3218994,20.4268799c12.9802856,0,12.9802856-11.4773254,12.9802856-20.4268799v-48.4369965
				h27.3952637v54.585556H729.1977539z"/>
			<path class="st3" d="M772.7842407,170.4768829l-29.3081665-41.6052551h32.1774292l13.4585571,24.1843414l13.1852417-24.1843414
				h30.4011841l-28.4882812,41.8785248l31.7675781,47.0706329h-32.9972534l-15.1665039-26.5071259l-15.7129517,26.5071259
				h-31.4259644L772.7842407,170.4768829z"/>
		</g>
		<g>
			<polygon class="st4" points="197.620575,242.4150391 197.620575,152.9876404 152.8043976,152.9876404 152.8043976,287.1628723 
				287.0479736,287.1628723 287.0479736,242.4150391 			"/>
			<polygon class="st3" points="376.4070435,63.4919319 152.8043976,63.4919319 152.8043976,130.5795593 197.5522614,130.5795593 
				197.5522614,108.4447403 331.7275085,108.4447403 331.7275085,242.4150391 309.3877258,242.4150391 309.3877258,287.1628723 
				376.4070435,287.1628723 			"/>
		</g>
	</g>
	<g>
		<g>
			<g>
				<path class="st3" d="M314.9765625,523.6171265c0-5.171875-1.9511719-9.5039062-5.8544922-12.9960632
					c-3.9023438-3.4921875-10.8232422-6.4277344-20.7617188-8.8076172
					c-12.0195312-2.8691406-21.3994141-7.09375-28.1367188-12.6748047
					c-6.7392578-5.5810547-10.1083984-12.5966797-10.1083984-21.0478516c0-8.8662109,3.6298828-16.2724609,10.8886719-22.21875
					s16.6640625-8.9199219,28.2158203-8.9199219c12.4355469,0,22.3349609,3.4091797,29.6982422,10.2246094
					c7.3623047,6.8173828,10.9140625,14.7265625,10.6542969,23.7275391l-0.15625,0.46875h-14.6738281
					c0-6.6601562-2.1992188-12.0458984-6.5957031-16.15625c-4.3974609-4.1103516-10.7060547-6.1660156-18.9267578-6.1660156
					c-7.6494141,0-13.5166016,1.7304688-17.6005859,5.1904297c-4.0859375,3.4609375-6.1279297,7.9746094-6.1279297,13.5410156
					c0,4.9443359,2.2119141,9.0673828,6.6347656,12.3720703c4.421875,3.3046875,11.6025391,6.2050781,21.5419922,8.7021484
					c11.9677734,2.9658203,21.0742188,7.3369141,27.3183594,13.1123047
					c6.2441406,5.7763672,9.3662109,12.9316101,9.3662109,21.4648132c0,9.1582031-3.7460938,16.5214844-11.2392578,22.0878906
					c-7.4931641,5.5693359-17.2763672,8.3515625-29.3476562,8.3515625c-11.3447266,0-21.3740234-3.0830078-30.0888672-9.2490234
					c-8.7158203-6.1660156-12.9443359-14.4003906-12.6835938-24.703125l0.15625-0.4677734h14.6738281
					c0,7.2851562,2.6796875,12.8271484,8.0390625,16.625c5.359375,3.7988281,11.9931641,5.6972656,19.9033203,5.6972656
					c7.7529297,0,13.8935547-1.6289062,18.4199219-4.8876953
					C312.7128906,533.6288452,314.9765625,529.2050171,314.9765625,523.6171265z"/>
				<path class="st3" d="M368.3808594,552.234314h-15.4541016V438.5917664h15.4541016V552.234314z"/>
				<path class="st3" d="M411.4990234,540.1366577h53.7773438v12.0976562h-69.1542969V438.5917664h15.3769531V540.1366577z"/>
				<path class="st3" d="M504.4326172,523.9794312l2.5751953,8.9765625h0.46875l2.5751953-8.9765625l29.3476562-85.3876648h16.625
					L513.7988281,552.234314h-13.1904297l-42.2265625-113.6425476h16.703125L504.4326172,523.9794312z"/>
				<path class="st3" d="M641.7841797,499.5497742h-52.0595703v40.5868835h60.0214844v12.0976562h-75.3984375V438.5917664
					h74.5400391v12.0976562h-59.1630859v36.7617188h52.0595703V499.5497742z"/>
				<path class="st3" d="M684.4794922,502.9843445v49.2499695h-15.3769531V438.6698914h41.1337891
					c12.4355469,0,21.9326172,2.7578125,28.4882812,8.2734375c6.5566406,5.515625,9.8349609,13.5292969,9.8349609,24.0390625
					c0,5.8291016-1.5224609,10.9023438-4.5664062,15.2207031c-3.0439453,4.3193359-7.4804688,7.7539062-13.3076172,10.3027344
					c6.2441406,2.0292969,10.7324219,5.3203125,13.4638672,9.8730469c2.7314453,4.5537109,4.0976562,10.1855164,4.0976562,16.898407
					v10.6933594c0,3.5390625,0.390625,6.7119141,1.1708984,9.5214844c0.7802734,2.8105469,2.1328125,5.1005859,4.0585938,6.8691406
					v1.8730469h-15.8447266c-2.0292969-1.7685547-3.3300781-4.3710938-3.9023438-7.8046875
					c-0.5732422-3.4345703-0.8583984-6.9726562-0.8583984-10.6152344v-10.3808594
					c0-6.1396484-1.7949219-11.0839844-5.3857422-14.8300476c-3.5898438-3.7460938-8.4042969-5.6191406-14.4394531-5.6191406
					H684.4794922z M684.4794922,490.8857117h24.1953125c8.6894531,0,14.9472656-1.6484375,18.7714844-4.9462891
					s5.7373047-8.3222656,5.7373047-15.0742188c0-6.3876953-1.8613281-11.3339844-5.5810547-14.8388672
					c-3.7207031-3.5048828-9.5097656-5.2587891-17.3662109-5.2587891h-25.7568359V490.8857117z"/>
			</g>
			<g>
				<g>
					<path class="st3" d="M316.7441406,599.3612671l21.6298828,55.1464844h0.2792969l21.6298828-55.1464844h11.7470703v67.8720703
						h-9.1835938v-26.8505859l0.9326172-27.5957031l-0.2333984-0.046875l-22.0019531,54.4931641h-6.1074219l-21.9091797-54.3535156
						l-0.2324219,0.046875l0.8857422,27.4560547v26.8505859h-9.1835938v-67.8720703H316.7441406z"/>
					<path class="st3" d="M429.1328125,635.7684937h-31.0917969v24.2392578h35.8466797v7.2255859h-45.0302734v-67.8720703H433.375
						v7.2255859h-35.3339844v21.9560547h31.0917969V635.7684937z"/>
					<path class="st3" d="M456.4033203,599.3612671l21.6298828,55.1464844H478.3125l21.6298828-55.1464844h11.7470703v67.8720703
						h-9.1835938v-26.8505859l0.9326172-27.5957031l-0.2333984-0.046875l-22.0019531,54.4931641h-6.1074219l-21.9091797-54.3535156
						l-0.2324219,0.046875l0.8857422,27.4560547v26.8505859H444.65625v-67.8720703H456.4033203z"/>
					<path class="st3" d="M528.5166016,667.2333374v-67.8720703h22.1425781c7.0849609,0,12.6328125,1.53125,16.6416016,4.5917969
						c4.0087891,3.0615234,6.0126953,7.6533203,6.0126953,13.7753906c0,3.0146484-0.9628906,5.7099609-2.8896484,8.0869141
						c-1.9277344,2.3779297-4.4599609,4.1416016-7.5986328,5.2910156c4.1025391,0.8701172,7.3261719,2.875,9.6728516,6.0136719
						c2.3457031,3.1386719,3.5195312,6.7900391,3.5195312,10.9541016c0,6.2158203-2.0126953,10.9628906-6.0371094,14.2412109
						c-4.0244141,3.2792969-9.4853516,4.9179688-16.3847656,4.9179688H528.5166016z M537.7001953,628.2167358h14.8701172
						c3.4179688,0,6.1992188-0.9394531,8.34375-2.8203125c2.1445312-1.8798828,3.2167969-4.4990234,3.2167969-7.8544922
						c0-3.6669922-1.1582031-6.4101562-3.4726562-8.2275391c-2.3154297-1.8183594-5.6484375-2.7275391-9.9990234-2.7275391
						h-12.9589844V628.2167358z M537.7001953,635.4413452v24.5664062h15.8955078
						c4.1640625,0,7.4121094-1.0292969,9.7421875-3.0878906c2.3310547-2.0585938,3.4960938-4.9765625,3.4960938-8.7539062
						c0-3.9619141-0.9716797-7.0732422-2.9130859-9.3339844c-1.9423828-2.2597656-4.9335938-3.390625-8.9736328-3.390625
						H537.7001953z"/>
					<path class="st3" d="M629.8115234,635.7684937h-31.0917969v24.2392578h35.8466797v7.2255859h-45.0302734v-67.8720703
						h44.5175781v7.2255859h-35.3339844v21.9560547h31.0917969V635.7684937z"/>
					<path class="st3" d="M654.5185547,637.8192749v29.4140625h-9.1835938v-67.8251953h24.5664062
						c7.4267578,0,13.0986328,1.6474609,17.0146484,4.9414062c3.9150391,3.2939453,5.8730469,8.0800781,5.8730469,14.3574219
						c0,3.4804688-0.9091797,6.5107422-2.7265625,9.0898438c-1.8183594,2.5800781-4.4677734,4.6308594-7.9482422,6.1533203
						c3.7294922,1.2119141,6.4101562,3.1777344,8.0410156,5.8964844c1.6318359,2.7197266,2.4472656,6.0839844,2.4472656,10.0927734
						v6.3857422c0,2.1142578,0.2333984,4.0087891,0.6992188,5.6875c0.4667969,1.6777344,1.2744141,3.0458984,2.4238281,4.1015625
						v1.1191406h-9.4619141c-1.2128906-1.0556641-1.9892578-2.6103516-2.3310547-4.6611328
						c-0.3427734-2.0517578-0.5126953-4.1640625-0.5126953-6.3398438v-6.2001953
						c0-3.6660156-1.0722656-6.6191406-3.2167969-8.8564453s-5.0195312-3.3564453-8.6240234-3.3564453H654.5185547z
						 M654.5185547,630.593689H668.96875c5.1894531,0,8.9267578-0.984375,11.2109375-2.9541016
						s3.4267578-4.9707031,3.4267578-9.0029297c0-3.8144531-1.1113281-6.7685547-3.3330078-8.8623047
						c-2.2226562-2.09375-5.6796875-3.140625-10.3720703-3.140625h-15.3828125V630.593689z"/>
				</g>
			</g>
		</g>
	</g>
</g>
</svg>
