<svg width="44" height="44" viewBox="0 0 44 44" fill="none" xmlns="http://www.w3.org/2000/svg">
<path d="M18.8652 7.07655L3.33683 32.9999C3.01667 33.5543 2.84727 34.1829 2.84547 34.8232C2.84368 35.4634 3.00956 36.093 3.32661 36.6492C3.64366 37.2054 4.10082 37.6689 4.65262 37.9936C5.20443 38.3183 5.83163 38.4929 6.47183 38.4999H37.5285C38.1687 38.4929 38.7959 38.3183 39.3477 37.9936C39.8995 37.6689 40.3567 37.2054 40.6737 36.6492C40.9908 36.093 41.1566 35.4634 41.1548 34.8232C41.1531 34.1829 40.9837 33.5543 40.6635 32.9999L25.1352 7.07655C24.8083 6.53775 24.3481 6.09227 23.799 5.78311C23.2499 5.47394 22.6303 5.31152 22.0002 5.31152C21.37 5.31152 20.7504 5.47394 20.2013 5.78311C19.6522 6.09227 19.192 6.53775 18.8652 7.07655V7.07655Z" stroke="#FFC260" stroke-width="3" stroke-linecap="round" stroke-linejoin="round"/>
<path d="M22 16.5V23.8333" stroke="#FFC260" stroke-width="3" stroke-linecap="round" stroke-linejoin="round"/>
<path d="M22 31.1665H22.0151" stroke="#FFC260" stroke-width="3" stroke-linecap="round" stroke-linejoin="round"/>
</svg>
