<svg width="10" height="5" viewBox="0 0 10 5" fill="none" xmlns="http://www.w3.org/2000/svg">
<path d="M5.13236 4.66185C5.13799 4.6563 5.14024 4.6489 5.14586 4.64335L9.07297 1.07553C9.29233 0.874795 9.29233 0.549185 9.07297 0.348454C9.07072 0.346604 9.06847 0.34568 9.06622 0.344755C9.01741 0.296149 8.95629 0.256894 8.88712 0.229732C8.81795 0.202571 8.7424 0.188157 8.66575 0.1875L0.810411 0.1875C0.732355 0.188537 0.655528 0.203655 0.585357 0.231787C0.515186 0.259918 0.453383 0.300377 0.404314 0.350305L0.402064 0.348454C0.295905 0.449454 0.237488 0.578493 0.237488 0.71199C0.237488 0.845486 0.295905 0.974526 0.402064 1.07553L4.33817 4.66185C4.38717 4.70909 4.44805 4.74701 4.51661 4.77302C4.58516 4.79903 4.65976 4.8125 4.73527 4.8125C4.81077 4.8125 4.88537 4.79903 4.95393 4.77302C5.02248 4.74701 5.08336 4.70909 5.13236 4.66185V4.66185Z" fill="#462F8D"/>
</svg>
