<svg width="6" height="9" viewBox="0 0 6 9" fill="none" xmlns="http://www.w3.org/2000/svg">
<path d="M4.89934 4.10512C4.89379 4.0995 4.88639 4.09725 4.88084 4.09163L1.31301 0.16452C1.11228 -0.0548401 0.786673 -0.0548401 0.585942 0.16452C0.584092 0.16677 0.583167 0.16902 0.582242 0.171269C0.533637 0.220075 0.494382 0.281199 0.46722 0.35037C0.440058 0.419542 0.425645 0.495092 0.424988 0.571742L0.424988 8.42708C0.426025 8.50513 0.441143 8.58196 0.469275 8.65213C0.497406 8.7223 0.537865 8.7841 0.587793 8.83317L0.585942 8.83542C0.686942 8.94158 0.815981 9 0.949478 9C1.08297 9 1.21201 8.94158 1.31301 8.83542L4.89934 4.89932C4.94657 4.85032 4.9845 4.78944 5.01051 4.72088C5.03652 4.65233 5.04999 4.57772 5.04999 4.50222C5.04999 4.42672 5.03652 4.35212 5.01051 4.28356C4.9845 4.215 4.94657 4.15413 4.89934 4.10512Z" fill="#462F8D"/>
</svg>
