<svg width="24" height="24" viewBox="0 0 24 24" fill="none" xmlns="http://www.w3.org/2000/svg">
<path d="M3.64286 6.89286H20.3571C20.7122 6.89286 21 6.60506 21 6.25V4.64286C21 4.2878 20.7122 4 20.3571 4H3.64286C3.2878 4 3 4.2878 3 4.64286V6.25C3 6.60506 3.2878 6.89286 3.64286 6.89286ZM3.64286 13.3214H20.3571C20.7122 13.3214 21 13.0336 21 12.6786V11.0714C21 10.7164 20.7122 10.4286 20.3571 10.4286H3.64286C3.2878 10.4286 3 10.7164 3 11.0714V12.6786C3 13.0336 3.2878 13.3214 3.64286 13.3214ZM3.64286 19.75H20.3571C20.7122 19.75 21 19.4622 21 19.1071V17.5C21 17.1449 20.7122 16.8571 20.3571 16.8571H3.64286C3.2878 16.8571 3 17.1449 3 17.5V19.1071C3 19.4622 3.2878 19.75 3.64286 19.75Z" fill="#424240"/>
</svg>
