<svg width="24" height="24" viewBox="0 0 24 24" fill="none" xmlns="http://www.w3.org/2000/svg">
<path d="M7.94382 15.9375H11.3242C11.6341 15.9375 11.8876 15.6844 11.8876 15.375V12C11.8876 11.6906 11.6341 11.4375 11.3242 11.4375H7.94382C7.63395 11.4375 7.38042 11.6906 7.38042 12V15.375C7.38042 15.6844 7.63395 15.9375 7.94382 15.9375ZM18.0851 5.25H16.3949V3.5625C16.3949 3.25312 16.1413 3 15.8315 3H14.7047C14.3948 3 14.1413 3.25312 14.1413 3.5625V5.25H9.63403V3.5625C9.63403 3.25312 9.3805 3 9.07063 3H7.94382C7.63395 3 7.38042 3.25312 7.38042 3.5625V5.25H5.69021C4.75707 5.25 4 6.00586 4 6.9375V19.3125C4 20.2441 4.75707 21 5.69021 21H18.0851C19.0182 21 19.7753 20.2441 19.7753 19.3125V6.9375C19.7753 6.00586 19.0182 5.25 18.0851 5.25ZM18.0851 19.1016C18.0851 19.2176 17.99 19.3125 17.8738 19.3125H5.90148C5.78528 19.3125 5.69021 19.2176 5.69021 19.1016V8.625H18.0851V19.1016Z" fill="#424240"/>
</svg>
