<svg width="24" height="24" viewBox="0 0 24 24" fill="none" xmlns="http://www.w3.org/2000/svg">
<path d="M21 4.92857V19.0714C21 20.1366 20.1366 21 19.0714 21H4.92857C3.86344 21 3 20.1366 3 19.0714V4.92857C3 3.86344 3.86344 3 4.92857 3H19.0714C20.1366 3 21 3.86344 21 4.92857ZM12.6819 16.2566L18.1267 10.8118C18.5033 10.4352 18.5033 9.82461 18.1267 9.44806L17.4448 8.76619C17.0682 8.38959 16.4577 8.38959 16.0811 8.76619L12 12.8473L7.91894 8.76623C7.54235 8.38963 6.93179 8.38963 6.55524 8.76623L5.87337 9.4481C5.49678 9.82469 5.49678 10.4352 5.87337 10.8118L11.3182 16.2566C11.6947 16.6332 12.3053 16.6332 12.6819 16.2566Z" fill="#424240"/>
</svg>
