<svg width="24" height="24" viewBox="0 0 24 24" fill="none" xmlns="http://www.w3.org/2000/svg">
<path d="M12 3.28125C7.18359 3.28125 3.28125 7.18359 3.28125 12C3.28125 16.8164 7.18359 20.7188 12 20.7188C16.8164 20.7188 20.7188 16.8164 20.7188 12C20.7188 7.18359 16.8164 3.28125 12 3.28125ZM16.275 14.2887C16.4402 14.4539 16.4402 14.7211 16.275 14.8863L14.8828 16.275C14.7176 16.4402 14.4504 16.4402 14.2852 16.275L12 13.9688L9.71133 16.275C9.54609 16.4402 9.27891 16.4402 9.11367 16.275L7.725 14.8828C7.55977 14.7176 7.55977 14.4504 7.725 14.2852L10.0312 12L7.725 9.71133C7.55977 9.54609 7.55977 9.27891 7.725 9.11367L9.11719 7.72148C9.28242 7.55625 9.54961 7.55625 9.71484 7.72148L12 10.0312L14.2887 7.725C14.4539 7.55977 14.7211 7.55977 14.8863 7.725L16.2785 9.11719C16.4438 9.28242 16.4438 9.54961 16.2785 9.71484L13.9688 12L16.275 14.2887Z" fill="#424240"/>
</svg>
