<svg width="32" height="32" viewBox="0 0 32 32" fill="none" xmlns="http://www.w3.org/2000/svg">
<path d="M12 26H9C7.14348 26 5.36301 25.2625 4.05025 23.9497C2.7375 22.637 2 20.8565 2 19C2 17.1435 2.7375 15.363 4.05025 14.0503C5.36301 12.7375 7.14348 12 9 12C9.58566 11.9998 10.1692 12.0711 10.7375 12.2125" stroke="black" stroke-width="2" stroke-linecap="round" stroke-linejoin="round"/>
<path d="M10 16C10 14.4155 10.3765 12.8536 11.0986 11.4432C11.8206 10.0327 12.8675 8.81406 14.1529 7.88758C15.4383 6.96109 16.9255 6.35333 18.4919 6.11437C20.0583 5.87541 21.6591 6.0121 23.1623 6.51317C24.6655 7.01424 26.0281 7.86534 27.1378 8.99635C28.2476 10.1274 29.0727 11.5059 29.5451 13.0183C30.0176 14.5308 30.1239 16.1338 29.8552 17.6954C29.5866 19.257 28.9507 20.7324 28 22" stroke="black" stroke-width="2" stroke-linecap="round" stroke-linejoin="round"/>
<path d="M14.7625 20.2375L19 16L23.2375 20.2375" stroke="black" stroke-width="2" stroke-linecap="round" stroke-linejoin="round"/>
<path d="M19 26V16" stroke="black" stroke-width="2" stroke-linecap="round" stroke-linejoin="round"/>
</svg>
