<svg width="24" height="24" viewBox="0 0 24 24" fill="none" xmlns="http://www.w3.org/2000/svg">
<path d="M10.8442 19.4565L9.12866 18.9562C8.94868 18.9053 8.84743 18.716 8.89805 18.5351L12.7368 5.24485C12.7874 5.06396 12.9759 4.9622 13.1558 5.01308L14.8713 5.51337C15.0513 5.56425 15.1526 5.75362 15.1019 5.93452L11.2632 19.2247C11.2097 19.4056 11.0241 19.5102 10.8442 19.4565ZM7.63815 16.2852L8.8615 14.9737C8.99086 14.8352 8.98242 14.6147 8.839 14.4875L6.29107 12.2348L8.839 9.98207C8.98242 9.85488 8.99367 9.63441 8.8615 9.49591L7.63815 8.18441C7.5116 8.04874 7.29787 8.04026 7.16007 8.17028L3.10757 11.9861C2.96414 12.1189 2.96414 12.3478 3.10757 12.4807L7.16007 16.2993C7.29787 16.4293 7.5116 16.4237 7.63815 16.2852ZM16.8399 16.3021L20.8924 12.4835C21.0359 12.3507 21.0359 12.1217 20.8924 11.9889L16.8399 8.16745C16.7049 8.04026 16.4912 8.04592 16.3618 8.18159L15.1385 9.49308C15.0091 9.63158 15.0176 9.85205 15.161 9.97924L17.7089 12.2348L15.161 14.4875C15.0176 14.6147 15.0063 14.8352 15.1385 14.9737L16.3618 16.2852C16.4884 16.4237 16.7021 16.4293 16.8399 16.3021Z" fill="#424240"/>
</svg>
