<svg width="24" height="24" viewBox="0 0 24 24" fill="none" xmlns="http://www.w3.org/2000/svg">
<path d="M12 5C7.02938 5 3 9.02938 3 14C3 15.65 3.44531 17.1956 4.22063 18.525C4.39594 18.8256 4.73 19 5.07812 19H18.9219C19.27 19 19.6041 18.8256 19.7794 18.525C20.5547 17.1956 21 15.65 21 14C21 9.02938 16.9706 5 12 5ZM12 7C12.5522 7 13 7.44781 13 8C13 8.55219 12.5522 9 12 9C11.4478 9 11 8.55219 11 8C11 7.44781 11.4478 7 12 7ZM6 16C5.44781 16 5 15.5522 5 15C5 14.4478 5.44781 14 6 14C6.55219 14 7 14.4478 7 15C7 15.5522 6.55219 16 6 16ZM7.5 11C6.94781 11 6.5 10.5522 6.5 10C6.5 9.44781 6.94781 9 7.5 9C8.05219 9 8.5 9.44781 8.5 10C8.5 10.5522 8.05219 11 7.5 11ZM13.7225 17H10.2775C10.1056 16.7047 10 16.3663 10 16C10 14.8953 10.8953 14 12 14C12.1766 14 12.3444 14.03 12.5075 14.0731L15.9 9.54969C16.1494 9.21969 16.6188 9.15219 16.9503 9.39969C17.2812 9.64812 17.3488 10.1184 17.1003 10.45L13.7078 14.9731C13.8894 15.2741 14 15.6228 14 16C14 16.3663 13.8944 16.7047 13.7225 17ZM18 16C17.4478 16 17 15.5522 17 15C17 14.4478 17.4478 14 18 14C18.5522 14 19 14.4478 19 15C19 15.5522 18.5522 16 18 16Z" fill="#424240"/>
</svg>
