<svg width="24" height="24" viewBox="0 0 24 24" fill="none" xmlns="http://www.w3.org/2000/svg">
<path d="M19.7119 5.57143V7.17857C19.7119 8.59487 16.1931 9.75 11.8559 9.75C7.51879 9.75 4 8.59487 4 7.17857V5.57143C4 4.15513 7.51879 3 11.8559 3C16.1931 3 19.7119 4.15513 19.7119 5.57143ZM19.7119 9.1875V12.8036C19.7119 14.2199 16.1931 15.375 11.8559 15.375C7.51879 15.375 4 14.2199 4 12.8036V9.1875C5.6878 10.3527 8.77697 10.8951 11.8559 10.8951C14.9349 10.8951 18.024 10.3527 19.7119 9.1875ZM19.7119 14.8125V18.4286C19.7119 19.8449 16.1931 21 11.8559 21C7.51879 21 4 19.8449 4 18.4286V14.8125C5.6878 15.9777 8.77697 16.5201 11.8559 16.5201C14.9349 16.5201 18.024 15.9777 19.7119 14.8125Z" fill="#424240"/>
</svg>
