<svg width="24" height="24" viewBox="0 0 24 24" fill="none" xmlns="http://www.w3.org/2000/svg">
<path d="M21 11.983C21.0093 16.9417 16.9123 20.9965 11.8887 21C9.53515 21.0016 7.38955 20.1231 5.77109 18.6795C5.5837 18.5124 5.57624 18.2243 5.75481 18.0481L6.37835 17.4326C6.54486 17.2682 6.8113 17.2635 6.98701 17.4183C8.28674 18.5628 10.0015 19.2581 11.8821 19.2581C15.9465 19.2581 19.2352 16.0112 19.2352 12C19.2352 7.98814 15.9459 4.74194 11.8821 4.74194C9.8409 4.74194 7.99571 5.56115 6.66424 6.88462L8.4691 8.64155C8.75003 8.91499 8.55384 9.3871 8.15931 9.3871H3.44119C3.19754 9.3871 3 9.19211 3 8.95161V4.35882C3 3.97229 3.47218 3.77734 3.75097 4.04875L5.40899 5.66273C7.0609 4.01856 9.35081 3 11.8821 3C16.9121 3 20.9907 7.02028 21 11.983ZM14.858 15.2554L15.377 14.5511C15.5203 14.3565 15.4767 14.0842 15.2797 13.9427L12.7645 12.1371V6.91935C12.7645 6.67886 12.567 6.48387 12.3233 6.48387H11.4409C11.1973 6.48387 10.9997 6.67886 10.9997 6.91935V13.0242L14.2417 15.3515C14.4388 15.4929 14.7147 15.4499 14.858 15.2554Z" fill="#424240"/>
</svg>
