<svg width="24" height="24" viewBox="0 0 24 24" fill="none" xmlns="http://www.w3.org/2000/svg">
<path d="M12.0001 7.60613L5.17121 13.6485C5.12058 13.6943 5.0559 13.7156 5.00027 13.7536V19.5524C5.00027 19.6854 5.05295 19.813 5.14672 19.9071C5.24048 20.0012 5.36766 20.0541 5.50027 20.0541H9.50019C9.6328 20.0541 9.75997 20.0012 9.85374 19.9071C9.94751 19.813 10.0002 19.6854 10.0002 19.5524V15.5389C10.0002 15.4059 10.0529 15.2783 10.1466 15.1842C10.2404 15.0901 10.3676 15.0373 10.5002 15.0373H13.5001C13.6327 15.0373 13.7599 15.0901 13.8537 15.1842C13.9474 15.2783 14.0001 15.4059 14.0001 15.5389V19.5524C14.0001 19.6854 14.0528 19.813 14.1466 19.9071C14.2403 20.0012 14.3675 20.0541 14.5001 20.0541H18.5C18.6326 20.0541 18.7598 20.0012 18.8536 19.9071C18.9473 19.813 19 19.6854 19 19.5524V13.7548C18.9469 13.7185 18.8838 13.6978 18.8356 13.6545L12.0001 7.60613ZM20.834 11.4089L12.8361 4.32264C12.6071 4.11498 12.3095 4 12.0009 4C11.6923 4 11.3947 4.11498 11.1658 4.32264L3.16593 11.4089C3.11707 11.4529 3.07732 11.5062 3.04897 11.5656C3.02062 11.625 3.00423 11.6895 3.00072 11.7553C2.9972 11.8211 3.00665 11.887 3.02851 11.9491C3.05037 12.0113 3.08422 12.0685 3.12812 12.1175L3.79717 12.8644C3.84105 12.9134 3.89413 12.9533 3.95338 12.9817C4.01262 13.0102 4.07687 13.0266 4.14246 13.0301C4.20804 13.0337 4.27367 13.0242 4.33561 13.0022C4.39754 12.9803 4.45456 12.9464 4.50341 12.9023L11.6695 6.55982C11.7609 6.47896 11.8785 6.43434 12.0003 6.43434C12.1221 6.43434 12.2397 6.47896 12.3311 6.55982L19.4972 12.902C19.546 12.946 19.6031 12.98 19.665 13.0019C19.7269 13.0239 19.7926 13.0333 19.8582 13.0298C19.9237 13.0263 19.988 13.0098 20.0472 12.9814C20.1065 12.953 20.1596 12.9131 20.2034 12.864L20.8722 12.1172C20.9607 12.0182 21.0064 11.8879 20.9993 11.7551C20.9921 11.6223 20.9327 11.4977 20.834 11.4089Z" fill="#424240"/>
</svg>
