<svg width="12" height="12" viewBox="0 0 12 12" fill="none" xmlns="http://www.w3.org/2000/svg">
<path d="M5.41797 8.91675H6.58464V5.41675H5.41797V8.91675ZM6.0013 4.25008C6.16658 4.25008 6.30512 4.19418 6.41693 4.08237C6.52873 3.97057 6.58464 3.83203 6.58464 3.66675C6.58464 3.50147 6.52873 3.36293 6.41693 3.25112C6.30512 3.13932 6.16658 3.08342 6.0013 3.08342C5.83602 3.08342 5.69748 3.13932 5.58568 3.25112C5.47387 3.36293 5.41797 3.50147 5.41797 3.66675C5.41797 3.83203 5.47387 3.97057 5.58568 4.08237C5.69748 4.19418 5.83602 4.25008 6.0013 4.25008ZM6.0013 11.8334C5.19436 11.8334 4.43602 11.6803 3.7263 11.374C3.01658 11.0678 2.39922 10.6522 1.87422 10.1272C1.34922 9.60217 0.933594 8.9848 0.627344 8.27508C0.321094 7.56536 0.167969 6.80703 0.167969 6.00008C0.167969 5.19314 0.321094 4.4348 0.627344 3.72508C0.933594 3.01536 1.34922 2.398 1.87422 1.873C2.39922 1.348 3.01658 0.932373 3.7263 0.626123C4.43602 0.319873 5.19436 0.166748 6.0013 0.166748C6.80825 0.166748 7.56658 0.319873 8.2763 0.626123C8.98602 0.932373 9.60339 1.348 10.1284 1.873C10.6534 2.398 11.069 3.01536 11.3753 3.72508C11.6815 4.4348 11.8346 5.19314 11.8346 6.00008C11.8346 6.80703 11.6815 7.56536 11.3753 8.27508C11.069 8.9848 10.6534 9.60217 10.1284 10.1272C9.60339 10.6522 8.98602 11.0678 8.2763 11.374C7.56658 11.6803 6.80825 11.8334 6.0013 11.8334ZM6.0013 10.6667C7.30408 10.6667 8.40755 10.2147 9.31172 9.3105C10.2159 8.40633 10.668 7.30286 10.668 6.00008C10.668 4.6973 10.2159 3.59383 9.31172 2.68967C8.40755 1.7855 7.30408 1.33341 6.0013 1.33341C4.69852 1.33341 3.59505 1.7855 2.69089 2.68967C1.78672 3.59383 1.33464 4.6973 1.33464 6.00008C1.33464 7.30286 1.78672 8.40633 2.69089 9.3105C3.59505 10.2147 4.69852 10.6667 6.0013 10.6667Z"/>
</svg>
