<svg width="13" height="18" viewBox="0 0 13 18" fill="none" xmlns="http://www.w3.org/2000/svg">
<path d="M1.75002 17.4165C1.3146 17.4165 0.941992 17.2616 0.632187 16.9518C0.321854 16.6415 0.166687 16.2686 0.166687 15.8332V7.9165C0.166687 7.48109 0.321854 7.10821 0.632187 6.79788C0.941992 6.48807 1.3146 6.33317 1.75002 6.33317H2.54169V4.74984C2.54169 3.6547 2.92776 2.72106 3.6999 1.94892C4.47151 1.17731 5.40488 0.791504 6.50002 0.791504C7.59516 0.791504 8.5288 1.17731 9.30094 1.94892C10.0725 2.72106 10.4584 3.6547 10.4584 4.74984V6.33317H11.25C11.6854 6.33317 12.0583 6.48807 12.3686 6.79788C12.6785 7.10821 12.8334 7.48109 12.8334 7.9165V15.8332C12.8334 16.2686 12.6785 16.6415 12.3686 16.9518C12.0583 17.2616 11.6854 17.4165 11.25 17.4165H1.75002ZM1.75002 15.8332H11.25V7.9165H1.75002V15.8332ZM6.50002 13.4582C6.93544 13.4582 7.30831 13.3033 7.61865 12.9935C7.92845 12.6831 8.08335 12.3103 8.08335 11.8748C8.08335 11.4394 7.92845 11.0665 7.61865 10.7562C7.30831 10.4464 6.93544 10.2915 6.50002 10.2915C6.0646 10.2915 5.69199 10.4464 5.38219 10.7562C5.07185 11.0665 4.91669 11.4394 4.91669 11.8748C4.91669 12.3103 5.07185 12.6831 5.38219 12.9935C5.69199 13.3033 6.0646 13.4582 6.50002 13.4582ZM4.12502 6.33317H8.87502V4.74984C8.87502 4.09012 8.64412 3.52935 8.18231 3.06755C7.72051 2.60574 7.15974 2.37484 6.50002 2.37484C5.8403 2.37484 5.27953 2.60574 4.81773 3.06755C4.35592 3.52935 4.12502 4.09012 4.12502 4.74984V6.33317Z" fill="currentColor"/>
</svg>
