<svg width="36" height="36" viewBox="0 0 36 36" fill="none" xmlns="http://www.w3.org/2000/svg">
<path d="M34.7822 23.3452C35.5574 20.9895 35.8313 18.4986 35.5866 16.0315C35.3419 13.5644 34.5838 11.1752 33.3608 9.01643L21.0899 8.7067V8.55374L32.9011 8.25548C31.4746 6.01718 29.5665 4.12323 27.3149 2.71084L17.8387 2.4744V2.32144L26.2605 2.10921C22.8091 0.264435 18.8443 -0.396301 14.9785 0.22906C11.1127 0.854421 7.56108 2.73108 4.87208 5.5692L15.473 5.83687V5.99046L4.23845 6.27279C1.49684 9.48386 -0.00599403 13.5643 1.79682e-05 17.7808C1.79682e-05 17.972 1.79679e-05 18.1568 0.00960864 18.3442C0.00891345 18.3567 0.00891345 18.3692 0.00960864 18.3818L4.23973 18.4888V18.6418L0.0255931 18.747C0.0262742 18.7595 0.0262742 18.772 0.0255931 18.7846C0.179299 21.5591 0.986931 24.2585 2.38298 26.6637L9.43979 26.8415V26.9944L2.68541 27.1646C4.34216 29.816 6.66787 31.9876 9.4302 33.4626C9.65015 33.5817 9.87265 33.6945 10.0984 33.8029V19.0344H11.8093C11.8752 19.0343 11.9404 19.0472 12.0013 19.0722C12.0621 19.0973 12.1174 19.1341 12.164 19.1805C12.2105 19.227 12.2475 19.2821 12.2726 19.3427C12.2978 19.4034 12.3107 19.4684 12.3106 19.534V34.6881C15.903 35.8484 19.7712 35.8484 23.3635 34.6881V19.534C23.3634 19.4684 23.3763 19.4034 23.4015 19.3427C23.4267 19.2821 23.4636 19.227 23.5102 19.1805C23.5567 19.1341 23.612 19.0973 23.6729 19.0722C23.7337 19.0472 23.7989 19.0343 23.8648 19.0344H25.5751V33.8029C25.7976 33.6958 26.0195 33.5836 26.2362 33.467C27.9807 32.5382 29.558 31.3267 30.9037 29.8821L26.4703 29.77V29.617L31.2503 29.4965C32.7167 27.8318 33.8572 25.9079 34.6127 23.8244L28.2343 23.6632V23.5102L34.7822 23.3452ZM28.0489 18.5653H7.62524L7.25632 17.0957H10.0984V15.5202H10.6776C10.8849 15.5203 11.09 15.5611 11.2814 15.6402C11.4729 15.7193 11.6468 15.8353 11.7932 15.9814C11.9397 16.1275 12.0559 16.3009 12.1351 16.4918C12.2143 16.6827 12.2551 16.8872 12.255 17.0938H16.7306V14.9957H5.88869C5.67705 13.3164 4.67707 12.0048 4.67707 12.0048C7.62524 12.6861 17.8387 12.739 17.8387 12.739C17.8387 12.739 28.0502 12.6861 30.9964 12.0048C30.9964 12.0048 29.9984 13.3164 29.7867 14.9957H18.9422V17.0944H23.4179C23.4179 16.8877 23.4587 16.683 23.5381 16.4921C23.6175 16.3011 23.7338 16.1276 23.8805 15.9815C24.0271 15.8354 24.2012 15.7195 24.3928 15.6405C24.5844 15.5614 24.7898 15.5208 24.9971 15.5209H25.5751V17.0944H28.4184L28.0489 18.5653Z" fill="white"/>
</svg>
