<svg width="148" height="36" viewBox="0 0 148 36" fill="none" xmlns="http://www.w3.org/2000/svg">
<g clip-path="url(#clip0_736_2141)">
<path d="M34.7825 23.3451C35.5577 20.9895 35.8317 18.4986 35.587 16.0314C35.3423 13.5643 34.5842 11.1751 33.3612 9.01639L21.0903 8.70666V8.5537L32.9015 8.25544C31.475 6.01715 29.5668 4.12319 27.3152 2.7108L17.839 2.47436V2.3214L26.2609 2.10918C22.8095 0.264396 18.8447 -0.396339 14.9789 0.229022C11.1131 0.854383 7.56144 2.73105 4.87244 5.56916L15.4733 5.83683V5.99042L4.23882 6.27275C1.49721 9.48382 -0.00562782 13.5642 0.000384179 17.7807C0.000384179 17.9719 0.000384179 18.1568 0.00997485 18.3441C0.00927966 18.3567 0.00927966 18.3692 0.00997485 18.3817L4.2401 18.4888V18.6418L0.0259593 18.7469C0.0266404 18.7594 0.0266404 18.772 0.0259593 18.7845C0.179666 21.5591 0.987298 24.2584 2.38335 26.6636L9.44016 26.8415V26.9944L2.68577 27.1646C4.34253 29.8159 6.66823 31.9876 9.43057 33.4625C9.65051 33.5817 9.87302 33.6945 10.0987 33.8028V19.0343H11.8097C11.8755 19.0343 11.9408 19.0471 12.0016 19.0722C12.0625 19.0973 12.1178 19.1341 12.1643 19.1805C12.2109 19.2269 12.2478 19.282 12.273 19.3427C12.2981 19.4034 12.311 19.4684 12.311 19.534V34.6881C15.9033 35.8484 19.7715 35.8484 23.3639 34.6881V19.534C23.3638 19.4684 23.3767 19.4034 23.4019 19.3427C23.427 19.282 23.464 19.2269 23.5105 19.1805C23.5571 19.1341 23.6124 19.0973 23.6732 19.0722C23.7341 19.0471 23.7993 19.0343 23.8652 19.0343H25.5755V33.8028C25.798 33.6958 26.0199 33.5836 26.2366 33.467C27.981 32.5382 29.5584 31.3267 30.9041 29.8821L26.4706 29.7699V29.617L31.2506 29.4965C32.717 27.8318 33.8576 25.9079 34.6131 23.8244L28.2347 23.6632V23.5102L34.7825 23.3451ZM28.0493 18.5653H7.62561L7.25668 17.0956H10.0987V15.5202H10.678C10.8852 15.5203 11.0904 15.561 11.2818 15.6402C11.4732 15.7193 11.6471 15.8352 11.7936 15.9813C11.9401 16.1274 12.0562 16.3009 12.1355 16.4918C12.2147 16.6826 12.2554 16.8872 12.2553 17.0937H16.731V14.9957H5.88905C5.67742 13.3164 4.67743 12.0048 4.67743 12.0048C7.62561 12.6861 17.839 12.739 17.839 12.739C17.839 12.739 28.0505 12.6861 30.9968 12.0048C30.9968 12.0048 29.9987 13.3164 29.7871 14.9957H18.9426V17.0944H23.4182C23.4182 16.8877 23.4591 16.683 23.5385 16.492C23.6178 16.3011 23.7342 16.1276 23.8808 15.9815C24.0275 15.8354 24.2016 15.7195 24.3932 15.6404C24.5848 15.5614 24.7901 15.5207 24.9975 15.5208H25.5755V17.0944H28.4188L28.0493 18.5653Z" fill="white"/>
<path d="M0.000366211 35.1842L0.279135 35.0963L0.557904 35.0179L1.11544 34.8611C1.48692 34.7655 1.8584 34.6699 2.23052 34.5903C2.97347 34.4182 3.71707 34.2748 4.46003 34.1384C5.94658 33.8726 7.4325 33.6738 8.91905 33.5126C11.8823 33.2053 14.8598 33.0547 17.839 33.0613C20.8171 33.061 23.7931 33.215 26.7551 33.5228C28.2417 33.6853 29.7276 33.8835 31.2142 34.1486C31.9571 34.2843 32.7007 34.4271 33.4437 34.5979C33.8151 34.6801 34.1866 34.7725 34.5587 34.8675L35.1163 35.0217L35.3951 35.0995L35.6738 35.1868V35.4347L31.2148 35.4984L26.7558 35.5207L17.839 35.5583L8.92097 35.5169L4.46195 35.4952L0.000366211 35.4347V35.1842Z" fill="white"/>
<path d="M137.27 13.7112L136.825 13.2612H133.271L132.823 13.7112V29.9213C132.823 33.974 135.933 35.775 139.043 35.775H147.556L148 35.3251V32.1723L147.556 31.7223H139.047C138.158 31.7223 137.27 31.2718 137.27 29.9213V13.7112Z" fill="white"/>
<path d="M121.623 13.0356C118.514 13.0356 116.292 14.3867 114.959 16.1878H114.513C113.624 14.8367 112.291 13.0356 108.737 13.0356C108.447 13.0356 106.654 13.0707 106.654 13.0707L106.207 13.5206V16.6811L106.654 17.131H108.195C111.024 17.4497 111.403 19.5528 111.403 22.0383V35.5494L111.847 35.9994H115.402L115.846 35.5494V22.9433C115.846 19.3412 117.623 17.0902 120.733 17.0902C124.288 17.0902 124.732 19.3419 124.732 22.0434V35.5545L125.18 36.0045H128.734L129.178 35.5545V22.0434C129.176 17.0883 127.843 13.0356 121.623 13.0356Z" fill="white"/>
<path d="M100.351 13.4862L99.9065 13.9368V35.5494L100.351 36H103.905L104.35 35.5494V13.9368L103.905 13.4862H100.351Z" fill="white"/>
<path d="M84.5517 35.3315L84.2276 35.6546H80.3331L80.0083 35.3315V19.8046L80.3331 19.4808H84.2269L84.5517 19.8046V35.3315Z" fill="white"/>
<path d="M87.2896 23.0389L86.9648 22.7158V19.4808L87.2896 19.157H89.0946C92.9891 19.157 95.2608 21.7452 95.2608 25.6264V35.3315L94.936 35.6546H91.0415L90.7173 35.3315V25.9508C90.7173 24.3333 90.0684 23.0396 88.1208 23.0396L87.2896 23.0389Z" fill="white"/>
<path d="M61.6262 29.1852C61.5477 28.6496 61.5083 28.109 61.5085 27.5677C61.5085 23.0389 64.1051 19.1551 69.2974 19.1551C74.4898 19.1551 77.0857 23.037 77.0857 27.5677V28.8614L76.7615 29.1846H66.7029M71.8952 31.1258L72.22 30.8021H76.1145L76.4393 31.1258M72.2194 25.6264C72.2194 25.3027 71.8946 23.0383 69.2987 23.0383C66.7028 23.0383 66.3781 25.3027 66.3781 25.6264L66.7022 25.9502H71.8946L72.2194 25.6264Z" fill="white"/>
<path d="M76.4386 31.1265C76.1138 33.0671 74.4917 35.9783 69.6235 35.9783C64.7553 35.9783 62.506 33.0671 62.1812 31.1265L62.506 30.8027H66.8703L67.1951 31.1265C67.5193 31.7733 68.6497 32.0971 69.6248 32.0971C70.5986 32.0971 71.5723 31.7733 71.8965 31.1265" fill="white"/>
<path d="M57.9409 16.8933H42.6886L42.3638 16.5695V13.3352L42.6886 13.0114H57.9409L58.2657 13.3352V16.5695" fill="white"/>
<path d="M47.5561 31.4496V31.7733H58.5905L58.9146 32.0964V35.3314L58.5905 35.6546H42.3637L42.0396 35.3314V31.7733L42.3637 31.1258L46.1712 26.0528L51.3508 19.4037L51.675 19.0799H56.1487L56.4729 19.4037L47.5561 31.4496Z" fill="white"/>
</g>
<defs>
<clipPath id="clip0_736_2141">
<rect width="148" height="36" fill="white" transform="translate(0.000366211)"/>
</clipPath>
</defs>
</svg>
