<svg xmlns="http://www.w3.org/2000/svg" viewBox="0 0 2314.75 564.87"><defs><style>.cls-1{fill:#431d93;}.cls-2{fill:#424240;}</style></defs><title>01 - ZenML Logo</title><g id="Layer_2" data-name="Layer 2"><g id="Layer_1-2" data-name="Layer 1"><path class="cls-1" d="M544,366.31a279.85,279.85,0,0,0-22.23-224.83l-191.92-4.86v-2.4l184.73-4.68a280.52,280.52,0,0,0-87.37-87l0,0L279,38.83v-2.4L410.72,33.1A278.86,278.86,0,0,0,76.2,87.39L242,91.59V94L66.29,98.43v0A278,278,0,0,0,0,279c0,3,0,5.9.15,8.84a5.34,5.34,0,0,0,0,.59l66.16,1.68v2.4L.4,294.16a5.45,5.45,0,0,1,0,.59A277.42,277.42,0,0,0,37.27,418.38l110.37,2.79v2.4L42,426.24a280.1,280.1,0,0,0,105.49,98.82c3.44,1.87,6.92,3.64,10.45,5.34V298.67H184.7a7.83,7.83,0,0,1,7.84,7.84V544.29a280.39,280.39,0,0,0,172.87,0V306.51a7.83,7.83,0,0,1,7.84-7.84H400V530.4c3.48-1.68,6.95-3.44,10.34-5.27a279,279,0,0,0,73-56.25L414,467.12v-2.4l74.76-1.89a278.26,278.26,0,0,0,52.59-89l-99.76-2.53v-2.4Zm-105.31-75H119.26l-5.77-23.06h44.45V243.53H167a24.68,24.68,0,0,1,24.67,24.69h70V235.3H92.1c-3.31-26.35-18.95-46.93-18.95-46.93C119.26,199.06,279,199.89,279,199.89s159.71-.83,205.79-11.52c0,0-15.61,20.58-18.92,46.93H296.26v32.93h70a24.69,24.69,0,0,1,24.7-24.69H400v24.69h44.47Z"/><path class="cls-2" d="M0,552.07l4.36-1.38,4.36-1.23L17.44,547c5.81-1.5,11.62-3,17.44-4.25,11.62-2.7,23.25-4.95,34.87-7.09,23.25-4.17,46.49-7.29,69.74-9.82A1320.1,1320.1,0,0,1,279,518.76,1343.66,1343.66,0,0,1,418.45,526c23.25,2.55,46.49,5.66,69.74,9.82,11.62,2.13,23.25,4.37,34.87,7.05,5.81,1.29,11.62,2.74,17.44,4.23l8.72,2.42,4.36,1.22,4.36,1.37V556l-69.74,1-69.74.35L279,557.94l-139.48-.65-69.74-.34L0,556Z"/><path class="cls-2" d="M2146.92,215.14l-6.95-7.06h-55.59l-7,7.06V469.49c0,63.59,48.64,91.85,97.28,91.85H2307.8l6.95-7.06V504.81l-6.95-7.06H2174.71c-13.89,0-27.79-7.07-27.79-28.26Z"/><path class="cls-2" d="M1902.21,204.54c-48.64,0-83.39,21.2-104.23,49.46H1791c-13.9-21.2-34.75-49.46-90.33-49.46-4.55,0-32.58.55-32.58.55l-7,7.06v49.59l7,7.06h24.1c44.25,5,50.17,38,50.17,77v212l6.95,7.06h55.59l6.95-7.06V360c0-56.52,27.79-91.84,76.44-91.84,55.59,0,62.54,35.33,62.54,77.72v212l7,7.06h55.59l6.95-7.06v-212C2020.34,268.13,1999.49,204.54,1902.21,204.54Z"/><polygon class="cls-2" points="1569.5 211.61 1562.55 218.68 1562.55 557.8 1569.5 564.87 1625.09 564.87 1632.04 557.8 1632.04 218.68 1625.09 211.61 1569.5 211.61"/><path class="cls-2" d="M1322.4,554.38l-5.07,5.07h-60.91l-5.08-5.07V310.75l5.08-5.08h60.9l5.08,5.08V554.38Z"/><path class="cls-2" d="M1365.22,361.5l-5.08-5.07V305.67l5.08-5.08h28.23c60.91,0,96.44,40.61,96.44,101.51V554.38l-5.08,5.07h-60.91l-5.07-5.07V407.19c0-25.38-10.15-45.68-40.61-45.68Z"/><path class="cls-2" d="M963.84,457.94A175,175,0,0,1,962,432.56c0-71.06,40.61-132,121.82-132s121.81,60.91,121.81,132v20.3l-5.07,5.07H1043.24m81.21,30.46,5.08-5.08h60.91l5.08,5.08m-66-86.29c0-5.08-5.08-40.61-45.68-40.61s-45.68,35.53-45.68,40.61l5.07,5.08h81.21Z"/><path class="cls-2" d="M1195.51,488.4c-5.08,30.45-30.45,76.13-106.59,76.13h0c-76.14,0-111.32-45.68-116.4-76.13l5.08-5.08h68.26l5.08,5.08c5.07,10.15,22.75,15.23,38,15.23h0c15.23,0,30.46-5.08,35.53-15.23"/><polyline class="cls-2" points="906.2 265.07 667.65 265.07 662.57 259.99 662.57 209.24 667.65 204.16 906.2 204.16 911.28 209.24 911.28 259.99"/><polygon class="cls-2" points="743.78 493.47 743.78 498.55 916.36 498.55 921.43 503.62 921.43 554.38 916.36 559.45 662.57 559.45 657.5 554.38 657.5 498.55 662.57 488.39 722.12 408.79 803.13 304.46 808.2 299.38 878.17 299.38 883.24 304.46 743.78 493.47"/></g></g></svg>