<svg width="32" height="32" viewBox="0 0 32 32" fill="none" xmlns="http://www.w3.org/2000/svg">
<path d="M16 22.5C18.7614 22.5 21 20.2614 21 17.5C21 14.7386 18.7614 12.5 16 12.5C13.2386 12.5 11 14.7386 11 17.5C11 20.2614 13.2386 22.5 16 22.5Z" stroke="black" stroke-width="2" stroke-linecap="round" stroke-linejoin="round"/>
<path d="M24.5 14.5C25.6647 14.4981 26.8137 14.7683 27.8554 15.2892C28.8972 15.81 29.8028 16.5671 30.5 17.5" stroke="black" stroke-width="2" stroke-linecap="round" stroke-linejoin="round"/>
<path d="M1.5 17.5C2.19725 16.5671 3.10285 15.81 4.14457 15.2892C5.1863 14.7683 6.33532 14.4981 7.5 14.5" stroke="black" stroke-width="2" stroke-linecap="round" stroke-linejoin="round"/>
<path d="M8.79999 27C9.45852 25.6513 10.4826 24.5148 11.7555 23.7197C13.0285 22.9247 14.4992 22.5032 16 22.5032C17.5008 22.5032 18.9715 22.9247 20.2444 23.7197C21.5174 24.5148 22.5415 25.6513 23.2 27" stroke="black" stroke-width="2" stroke-linecap="round" stroke-linejoin="round"/>
<path d="M7.49997 14.5C6.74077 14.5008 5.99703 14.2855 5.35566 13.8792C4.71428 13.473 4.20175 12.8927 3.87795 12.206C3.55416 11.5193 3.43247 10.7546 3.52711 10.0014C3.62176 9.24809 3.92881 8.5373 4.41241 7.95206C4.89601 7.36681 5.53618 6.93127 6.25811 6.69634C6.98004 6.4614 7.75393 6.43677 8.48934 6.62532C9.22475 6.81388 9.89131 7.20782 10.4111 7.76113C10.931 8.31444 11.2826 9.00427 11.425 9.75" stroke="black" stroke-width="2" stroke-linecap="round" stroke-linejoin="round"/>
<path d="M20.575 9.75C20.7174 9.00427 21.069 8.31444 21.5888 7.76113C22.1087 7.20782 22.7752 6.81388 23.5106 6.62532C24.2461 6.43677 25.0199 6.4614 25.7419 6.69634C26.4638 6.93127 27.104 7.36681 27.5876 7.95206C28.0712 8.5373 28.3782 9.24809 28.4729 10.0014C28.5675 10.7546 28.4458 11.5193 28.122 12.206C27.7982 12.8927 27.2857 13.473 26.6443 13.8792C26.0029 14.2855 25.2592 14.5008 24.5 14.5" stroke="black" stroke-width="2" stroke-linecap="round" stroke-linejoin="round"/>
</svg>
