<svg width="21" height="21" viewBox="0 0 21 21" fill="none" xmlns="http://www.w3.org/2000/svg">
<path d="M7.875 5.90625V3.9375" stroke="#443E99" stroke-width="2" stroke-linecap="round" stroke-linejoin="round"/>
<path d="M13.125 17.0625V15.0938" stroke="#443E99" stroke-width="2" stroke-linecap="round" stroke-linejoin="round"/>
<path d="M5.90625 7.875H3.9375" stroke="#443E99" stroke-width="2" stroke-linecap="round" stroke-linejoin="round"/>
<path d="M17.0625 13.125H15.0938" stroke="#443E99" stroke-width="2" stroke-linecap="round" stroke-linejoin="round"/>
<path d="M5.82409 10.5332L4.89714 11.4602C4.28144 12.0759 3.93555 12.9109 3.93555 13.7816C3.93555 14.2128 4.02047 14.6397 4.18546 15.038C4.35045 15.4363 4.59228 15.7983 4.89714 16.1031C5.202 16.408 5.56392 16.6498 5.96224 16.8148C6.36056 16.9798 6.78748 17.0647 7.21862 17.0647C8.08935 17.0647 8.92441 16.7188 9.54011 16.1031L10.4671 15.1762" stroke="#443E99" stroke-width="2" stroke-linecap="round" stroke-linejoin="round"/>
<path d="M15.1762 10.4671L16.1031 9.54011C16.7188 8.92441 17.0647 8.08935 17.0647 7.21862C17.0647 6.3479 16.7188 5.51283 16.1031 4.89714C15.4874 4.28144 14.6524 3.93555 13.7816 3.93555C12.9109 3.93555 12.0759 4.28144 11.4602 4.89714L10.5332 5.82409" stroke="#443E99" stroke-width="2" stroke-linecap="round" stroke-linejoin="round"/>
</svg>
