<svg width="70" height="62" viewBox="0 0 70 62" fill="none" xmlns="http://www.w3.org/2000/svg">
<path d="M34.9987 49.7917C39.2695 49.7917 42.8997 48.2969 45.8893 45.3073C48.8789 42.3177 50.3737 38.6875 50.3737 34.4167C50.3737 30.1458 48.8789 26.5156 45.8893 23.526C42.8997 20.5365 39.2695 19.0417 34.9987 19.0417C30.7279 19.0417 27.0977 20.5365 24.1081 23.526C21.1185 26.5156 19.6237 30.1458 19.6237 34.4167C19.6237 38.6875 21.1185 42.3177 24.1081 45.3073C27.0977 48.2969 30.7279 49.7917 34.9987 49.7917ZM34.9987 42.9583C32.607 42.9583 30.5855 42.1326 28.9341 40.4813C27.2827 38.8299 26.457 36.8083 26.457 34.4167C26.457 32.025 27.2827 30.0035 28.9341 28.3521C30.5855 26.7007 32.607 25.875 34.9987 25.875C37.3904 25.875 39.4119 26.7007 41.0633 28.3521C42.7147 30.0035 43.5404 32.025 43.5404 34.4167C43.5404 36.8083 42.7147 38.8299 41.0633 40.4813C39.4119 42.1326 37.3904 42.9583 34.9987 42.9583ZM7.66536 61.75C5.7862 61.75 4.17752 61.0809 2.83932 59.7427C1.50113 58.4045 0.832031 56.7958 0.832031 54.9167V13.9167C0.832031 12.0375 1.50113 10.4288 2.83932 9.09063C4.17752 7.75243 5.7862 7.08333 7.66536 7.08333H18.4279L24.7487 0.25H45.2487L51.5695 7.08333H62.332C64.2112 7.08333 65.8199 7.75243 67.1581 9.09063C68.4963 10.4288 69.1654 12.0375 69.1654 13.9167V54.9167C69.1654 56.7958 68.4963 58.4045 67.1581 59.7427C65.8199 61.0809 64.2112 61.75 62.332 61.75H7.66536ZM62.332 54.9167V13.9167H48.4945L42.2591 7.08333H27.7383L21.5029 13.9167H7.66536V54.9167H62.332Z" fill="#443E99"/>
</svg>
