<svg width="64" height="64" viewBox="0 0 64 64" fill="none" xmlns="http://www.w3.org/2000/svg">
    <rect width="64" height="64" fill="#DDDDDD" />
    <path
        d="M21.3182 29.1818V35H20.6364L17.4659 30.4318H17.4091V35H16.7045V29.1818H17.3864L20.5682 33.7614H20.625V29.1818H21.3182ZM24.4098 35.0909C24.0159 35.0909 23.6702 34.9972 23.3729 34.8097C23.0774 34.6222 22.8464 34.3598 22.6797 34.0227C22.5149 33.6856 22.4325 33.2917 22.4325 32.8409C22.4325 32.3864 22.5149 31.9896 22.6797 31.6506C22.8464 31.3116 23.0774 31.0483 23.3729 30.8608C23.6702 30.6733 24.0159 30.5795 24.4098 30.5795C24.8037 30.5795 25.1484 30.6733 25.4439 30.8608C25.7412 31.0483 25.9723 31.3116 26.1371 31.6506C26.3037 31.9896 26.3871 32.3864 26.3871 32.8409C26.3871 33.2917 26.3037 33.6856 26.1371 34.0227C25.9723 34.3598 25.7412 34.6222 25.4439 34.8097C25.1484 34.9972 24.8037 35.0909 24.4098 35.0909ZM24.4098 34.4886C24.709 34.4886 24.9553 34.4119 25.1484 34.2585C25.3416 34.1051 25.4846 33.9034 25.5774 33.6534C25.6702 33.4034 25.7166 33.1326 25.7166 32.8409C25.7166 32.5492 25.6702 32.2775 25.5774 32.0256C25.4846 31.7737 25.3416 31.5701 25.1484 31.4148C24.9553 31.2595 24.709 31.1818 24.4098 31.1818C24.1106 31.1818 23.8643 31.2595 23.6712 31.4148C23.478 31.5701 23.335 31.7737 23.2422 32.0256C23.1494 32.2775 23.103 32.5492 23.103 32.8409C23.103 33.1326 23.1494 33.4034 23.2422 33.6534C23.335 33.9034 23.478 34.1051 23.6712 34.2585C23.8643 34.4119 24.1106 34.4886 24.4098 34.4886ZM29.7514 35V29.1818H30.456V34.375H33.1605V35H29.7514ZM35.9332 35.0909C35.5393 35.0909 35.1937 34.9972 34.8963 34.8097C34.6009 34.6222 34.3698 34.3598 34.2031 34.0227C34.0384 33.6856 33.956 33.2917 33.956 32.8409C33.956 32.3864 34.0384 31.9896 34.2031 31.6506C34.3698 31.3116 34.6009 31.0483 34.8963 30.8608C35.1937 30.6733 35.5393 30.5795 35.9332 30.5795C36.3272 30.5795 36.6719 30.6733 36.9673 30.8608C37.2647 31.0483 37.4957 31.3116 37.6605 31.6506C37.8272 31.9896 37.9105 32.3864 37.9105 32.8409C37.9105 33.2917 37.8272 33.6856 37.6605 34.0227C37.4957 34.3598 37.2647 34.6222 36.9673 34.8097C36.6719 34.9972 36.3272 35.0909 35.9332 35.0909ZM35.9332 34.4886C36.2325 34.4886 36.4787 34.4119 36.6719 34.2585C36.8651 34.1051 37.008 33.9034 37.1009 33.6534C37.1937 33.4034 37.2401 33.1326 37.2401 32.8409C37.2401 32.5492 37.1937 32.2775 37.1009 32.0256C37.008 31.7737 36.8651 31.5701 36.6719 31.4148C36.4787 31.2595 36.2325 31.1818 35.9332 31.1818C35.634 31.1818 35.3878 31.2595 35.1946 31.4148C35.0014 31.5701 34.8584 31.7737 34.7656 32.0256C34.6728 32.2775 34.6264 32.5492 34.6264 32.8409C34.6264 33.1326 34.6728 33.4034 34.7656 33.6534C34.8584 33.9034 35.0014 34.1051 35.1946 34.2585C35.3878 34.4119 35.634 34.4886 35.9332 34.4886ZM40.6953 36.7273C40.3714 36.7273 40.093 36.6856 39.8601 36.6023C39.6271 36.5208 39.433 36.4129 39.2777 36.2784C39.1243 36.1458 39.0021 36.0038 38.9112 35.8523L39.4453 35.4773C39.5059 35.5568 39.5826 35.6477 39.6754 35.75C39.7682 35.8542 39.8951 35.9441 40.0561 36.0199C40.219 36.0975 40.4321 36.1364 40.6953 36.1364C41.0476 36.1364 41.3383 36.0511 41.5675 35.8807C41.7966 35.7102 41.9112 35.4432 41.9112 35.0795V34.1932H41.8544C41.8052 34.2727 41.7351 34.3712 41.6442 34.4886C41.5552 34.6042 41.4264 34.7074 41.2578 34.7983C41.0911 34.8873 40.8658 34.9318 40.5817 34.9318C40.2294 34.9318 39.9131 34.8485 39.6328 34.6818C39.3544 34.5152 39.1338 34.2727 38.9709 33.9545C38.8099 33.6364 38.7294 33.25 38.7294 32.7955C38.7294 32.3485 38.808 31.9593 38.9652 31.6278C39.1224 31.2945 39.3411 31.0369 39.6214 30.8551C39.9018 30.6714 40.2256 30.5795 40.593 30.5795C40.8771 30.5795 41.1025 30.6269 41.2692 30.7216C41.4377 30.8144 41.5665 30.9205 41.6555 31.0398C41.7464 31.1572 41.8165 31.2538 41.8658 31.3295H41.9339V30.6364H42.5817V35.125C42.5817 35.5 42.4964 35.8049 42.326 36.0398C42.1574 36.2765 41.9302 36.4498 41.6442 36.5597C41.3601 36.6714 41.0438 36.7273 40.6953 36.7273ZM40.6726 34.3295C40.9415 34.3295 41.1688 34.268 41.3544 34.1449C41.54 34.0218 41.6811 33.8447 41.7777 33.6136C41.8743 33.3826 41.9226 33.1061 41.9226 32.7841C41.9226 32.4697 41.8752 32.1922 41.7805 31.9517C41.6858 31.7112 41.5457 31.5227 41.3601 31.3864C41.1745 31.25 40.9453 31.1818 40.6726 31.1818C40.3885 31.1818 40.1518 31.2538 39.9624 31.3977C39.7749 31.5417 39.6338 31.7348 39.5391 31.9773C39.4463 32.2197 39.3999 32.4886 39.3999 32.7841C39.3999 33.0871 39.4472 33.3551 39.5419 33.5881C39.6385 33.8191 39.7805 34.0009 39.968 34.1335C40.1574 34.2642 40.3923 34.3295 40.6726 34.3295ZM45.5817 35.0909C45.1877 35.0909 44.8421 34.9972 44.5447 34.8097C44.2493 34.6222 44.0182 34.3598 43.8516 34.0227C43.6868 33.6856 43.6044 33.2917 43.6044 32.8409C43.6044 32.3864 43.6868 31.9896 43.8516 31.6506C44.0182 31.3116 44.2493 31.0483 44.5447 30.8608C44.8421 30.6733 45.1877 30.5795 45.5817 30.5795C45.9756 30.5795 46.3203 30.6733 46.6158 30.8608C46.9131 31.0483 47.1442 31.3116 47.3089 31.6506C47.4756 31.9896 47.5589 32.3864 47.5589 32.8409C47.5589 33.2917 47.4756 33.6856 47.3089 34.0227C47.1442 34.3598 46.9131 34.6222 46.6158 34.8097C46.3203 34.9972 45.9756 35.0909 45.5817 35.0909ZM45.5817 34.4886C45.8809 34.4886 46.1271 34.4119 46.3203 34.2585C46.5135 34.1051 46.6565 33.9034 46.7493 33.6534C46.8421 33.4034 46.8885 33.1326 46.8885 32.8409C46.8885 32.5492 46.8421 32.2775 46.7493 32.0256C46.6565 31.7737 46.5135 31.5701 46.3203 31.4148C46.1271 31.2595 45.8809 31.1818 45.5817 31.1818C45.2824 31.1818 45.0362 31.2595 44.843 31.4148C44.6499 31.5701 44.5069 31.7737 44.4141 32.0256C44.3213 32.2775 44.2749 32.5492 44.2749 32.8409C44.2749 33.1326 44.3213 33.4034 44.4141 33.6534C44.5069 33.9034 44.6499 34.1051 44.843 34.2585C45.0362 34.4119 45.2824 34.4886 45.5817 34.4886Z"
        fill="#909090" />
</svg>
