<svg width="23" height="20" viewBox="0 0 23 20" fill="none" xmlns="http://www.w3.org/2000/svg">
<path d="M2.12508 19.8752C1.55216 19.8752 1.06171 19.6712 0.653727 19.2632C0.245741 18.8552 0.041748 18.3647 0.041748 17.7918V4.25016H2.12508V17.7918H19.8334V19.8752H2.12508ZM6.29175 15.7085C5.71883 15.7085 5.22838 15.5045 4.82039 15.0965C4.41241 14.6885 4.20841 14.1981 4.20841 13.6252V2.16683C4.20841 1.59391 4.41241 1.10346 4.82039 0.695475C5.22838 0.287489 5.71883 0.0834961 6.29175 0.0834961H11.5001L13.5834 2.16683H20.8751C21.448 2.16683 21.9384 2.37082 22.3464 2.77881C22.7544 3.18679 22.9584 3.67725 22.9584 4.25016V13.6252C22.9584 14.1981 22.7544 14.6885 22.3464 15.0965C21.9384 15.5045 21.448 15.7085 20.8751 15.7085H6.29175ZM6.29175 13.6252H20.8751V4.25016H12.724L10.6407 2.16683H6.29175V13.6252Z" fill="#E8A562"/>
</svg>
