<svg width="24" height="24" viewBox="0 0 24 24" fill="none" xmlns="http://www.w3.org/2000/svg">
<path d="M20.7565 3.6799C20.7336 3.57341 20.6804 3.47582 20.6033 3.39886C20.5262 3.3219 20.4285 3.26884 20.322 3.24609C19.1754 3 18.2782 3 17.3841 3C13.737 3 11.5417 4.93704 9.89902 7.49985H6.33352C6.02064 7.50011 5.71399 7.58734 5.44783 7.75179C5.18166 7.91624 4.96646 8.15143 4.82625 8.43111L3.08868 11.9044C3.02451 12.0331 2.99429 12.176 3.00089 12.3196C3.00749 12.4633 3.05068 12.6028 3.12638 12.7251C3.20207 12.8473 3.30775 12.9482 3.43339 13.0181C3.55903 13.0881 3.70046 13.1247 3.84425 13.1247H7.09999L6.72766 13.8777C6.62393 14.0878 6.58899 14.3253 6.6278 14.5565C6.66661 14.7876 6.7772 15.0006 6.94389 15.1654L8.8344 17.0539C9.38112 17.6003 10.0235 17.3187 10.1226 17.2698L10.8736 16.8979V20.1557C10.8735 20.2994 10.9102 20.4408 10.9801 20.5665C11.05 20.6921 11.1508 20.7978 11.273 20.8735C11.3952 20.9492 11.5348 20.9924 11.6784 20.9991C11.822 21.0057 11.965 20.9756 12.0937 20.9115L15.5639 19.1748C15.844 19.0349 16.0796 18.8197 16.2442 18.5532C16.4088 18.2868 16.4958 17.9798 16.4956 17.6667V14.0988C19.052 12.4543 20.9995 10.2507 20.9995 6.62097C21.0023 5.72346 21.0023 4.82806 20.7565 3.6799ZM15.605 12.6676C14.3062 13.3173 11.3465 14.7819 9.7408 15.576L8.42233 14.2581C9.21658 12.6518 10.6813 9.6879 11.33 8.39068C12.9965 5.79588 14.8115 4.68744 17.3841 4.68744C18.0169 4.68744 18.5893 4.68744 19.232 4.76971C19.3157 5.42816 19.3136 6.01033 19.3111 6.62062C19.3118 9.17921 18.2015 10.9915 15.605 12.6676ZM15.9366 6.65613C15.6584 6.65613 15.3865 6.7386 15.1552 6.89312C14.9239 7.04763 14.7437 7.26725 14.6372 7.5242C14.5308 7.78115 14.5029 8.06389 14.5572 8.33667C14.6115 8.60944 14.7454 8.86 14.9421 9.05667C15.1388 9.25333 15.3894 9.38725 15.6622 9.44151C15.935 9.49577 16.2178 9.46792 16.4748 9.36149C16.7317 9.25506 16.9514 9.07482 17.1059 8.84357C17.2604 8.61233 17.3429 8.34045 17.3429 8.06233C17.3429 7.68938 17.1948 7.33171 16.931 7.06799C16.6673 6.80428 16.3095 6.65613 15.9366 6.65613Z" fill="#424240"/>
</svg>
