<svg width="19" height="19" viewBox="0 0 19 19" fill="none" xmlns="http://www.w3.org/2000/svg">
<path d="M11.3149 13.2265C11.0057 12.9173 11.0057 12.416 11.3149 12.1069C11.624 11.7977 12.1253 11.7977 12.4345 12.1069L15.6011 15.2735C15.9103 15.5827 15.9103 16.084 15.6011 16.3931C15.292 16.7023 14.7907 16.7023 14.4815 16.3931L11.3149 13.2265Z" fill="#B5B5C3"/>
<path fill-rule="evenodd" clip-rule="evenodd" d="M3.16699 8.70834C3.16699 11.7689 5.64808 14.25 8.70866 14.25C11.7692 14.25 14.2503 11.7689 14.2503 8.70834C14.2503 5.64776 11.7692 3.16667 8.70866 3.16667C5.64808 3.16667 3.16699 5.64776 3.16699 8.70834ZM12.667 8.70834C12.667 10.8945 10.8948 12.6667 8.70866 12.6667C6.52253 12.6667 4.75033 10.8945 4.75033 8.70834C4.75033 6.52221 6.52253 4.75001 8.70866 4.75001C10.8948 4.75001 12.667 6.52221 12.667 8.70834Z" fill="#B5B5C3"/>
</svg>
