<svg width="19" height="20" viewBox="0 0 19 20" fill="none" xmlns="http://www.w3.org/2000/svg">
<path d="M15.5 20C14.6667 20 13.9583 19.7083 13.375 19.125C12.7917 18.5417 12.5 17.8333 12.5 17C12.5 16.8833 12.5083 16.7623 12.525 16.637C12.5417 16.5123 12.5667 16.4 12.6 16.3L5.55 12.2C5.26667 12.45 4.95 12.6457 4.6 12.787C4.25 12.929 3.88333 13 3.5 13C2.66667 13 1.95833 12.7083 1.375 12.125C0.791667 11.5417 0.5 10.8333 0.5 10C0.5 9.16667 0.791667 8.45833 1.375 7.875C1.95833 7.29167 2.66667 7 3.5 7C3.88333 7 4.25 7.07067 4.6 7.212C4.95 7.354 5.26667 7.55 5.55 7.8L12.6 3.7C12.5667 3.6 12.5417 3.48767 12.525 3.363C12.5083 3.23767 12.5 3.11667 12.5 3C12.5 2.16667 12.7917 1.45833 13.375 0.875C13.9583 0.291667 14.6667 0 15.5 0C16.3333 0 17.0417 0.291667 17.625 0.875C18.2083 1.45833 18.5 2.16667 18.5 3C18.5 3.83333 18.2083 4.54167 17.625 5.125C17.0417 5.70833 16.3333 6 15.5 6C15.1167 6 14.75 5.929 14.4 5.787C14.05 5.64567 13.7333 5.45 13.45 5.2L6.4 9.3C6.43333 9.4 6.45833 9.51233 6.475 9.637C6.49167 9.76233 6.5 9.88333 6.5 10C6.5 10.1167 6.49167 10.2373 6.475 10.362C6.45833 10.4873 6.43333 10.6 6.4 10.7L13.45 14.8C13.7333 14.55 14.05 14.354 14.4 14.212C14.75 14.0707 15.1167 14 15.5 14C16.3333 14 17.0417 14.2917 17.625 14.875C18.2083 15.4583 18.5 16.1667 18.5 17C18.5 17.8333 18.2083 18.5417 17.625 19.125C17.0417 19.7083 16.3333 20 15.5 20ZM15.5 4C15.7833 4 16.0207 3.90433 16.212 3.713C16.404 3.521 16.5 3.28333 16.5 3C16.5 2.71667 16.404 2.479 16.212 2.287C16.0207 2.09567 15.7833 2 15.5 2C15.2167 2 14.9793 2.09567 14.788 2.287C14.596 2.479 14.5 2.71667 14.5 3C14.5 3.28333 14.596 3.521 14.788 3.713C14.9793 3.90433 15.2167 4 15.5 4ZM3.5 11C3.78333 11 4.021 10.904 4.213 10.712C4.40433 10.5207 4.5 10.2833 4.5 10C4.5 9.71667 4.40433 9.479 4.213 9.287C4.021 9.09567 3.78333 9 3.5 9C3.21667 9 2.979 9.09567 2.787 9.287C2.59567 9.479 2.5 9.71667 2.5 10C2.5 10.2833 2.59567 10.5207 2.787 10.712C2.979 10.904 3.21667 11 3.5 11ZM15.5 18C15.7833 18 16.0207 17.904 16.212 17.712C16.404 17.5207 16.5 17.2833 16.5 17C16.5 16.7167 16.404 16.4793 16.212 16.288C16.0207 16.096 15.7833 16 15.5 16C15.2167 16 14.9793 16.096 14.788 16.288C14.596 16.4793 14.5 16.7167 14.5 17C14.5 17.2833 14.596 17.5207 14.788 17.712C14.9793 17.904 15.2167 18 15.5 18Z" fill="#443E99"/>
</svg>
