<svg width="24" height="24" viewBox="0 0 24 24" fill="none" xmlns="http://www.w3.org/2000/svg">
<path d="M9.32782 18.4993H6.37484C4.51164 18.4993 3 16.9877 3 15.1245V8.37484C3 6.51164 4.51164 5 6.37484 5H9.32782C9.55984 5 9.74967 5.18983 9.74967 5.42185V6.82804C9.74967 7.06006 9.55984 7.24989 9.32782 7.24989H6.37484C5.7526 7.24989 5.24989 7.7526 5.24989 8.37484V15.1245C5.24989 15.7467 5.7526 16.2495 6.37484 16.2495H9.32782C9.55984 16.2495 9.74967 16.4393 9.74967 16.6713V18.0775C9.74967 18.3095 9.55984 18.4993 9.32782 18.4993ZM13.4725 7.844L16.2005 10.3435H9.46843C9.00088 10.3435 8.62473 10.7196 8.62473 11.1872V12.3121C8.62473 12.7797 9.00088 13.1559 9.46843 13.1559H16.2005L13.4725 15.6553C13.1175 15.9788 13.1069 16.5342 13.4444 16.8752L14.2143 17.6451C14.5412 17.972 15.0756 17.9755 15.406 17.6486L20.7495 12.3473C21.0835 12.0168 21.0835 11.479 20.7495 11.1485L15.4095 5.85426C15.0791 5.52732 14.5483 5.52732 14.2178 5.85777L13.4479 6.62765C13.1069 6.96514 13.121 7.52058 13.4725 7.844Z" fill="#424240"/>
</svg>
