<svg width="24" height="24" viewBox="0 0 24 24" fill="none" xmlns="http://www.w3.org/2000/svg">
<mask id="mask0_2074_15582" style="mask-type:alpha" maskUnits="userSpaceOnUse" x="0" y="0" width="24" height="24">
<rect width="24" height="24" fill="#D9D9D9"/>
</mask>
<g mask="url(#mask0_2074_15582)">
<path d="M19 9L17.75 6.25L15 5L17.75 3.75L19 1L20.25 3.75L23 5L20.25 6.25L19 9ZM19 23L17.75 20.25L15 19L17.75 17.75L19 15L20.25 17.75L23 19L20.25 20.25L19 23ZM9 20L6.5 14.5L1 12L6.5 9.5L9 4L11.5 9.5L17 12L11.5 14.5L9 20Z" fill="#FFD233"/>
</g>
</svg>
