<svg width="25" height="27" viewBox="0 0 25 27" fill="none" xmlns="http://www.w3.org/2000/svg">
<path d="M21.9014 12.5475V21.1463C21.9014 21.7411 21.6975 22.2506 21.2899 22.6746C20.8816 23.0978 20.3909 23.3095 19.818 23.3095H5.23468C4.66177 23.3095 4.17149 23.0978 3.76385 22.6746C3.35552 22.2506 3.15135 21.7411 3.15135 21.1463V12.5475C2.75204 12.1689 2.44406 11.6822 2.22739 11.0873C2.01003 10.4925 2.00552 9.84349 2.21385 9.14044L3.3076 5.46298C3.44649 4.99429 3.69406 4.60671 4.05031 4.30026C4.40586 3.9938 4.81802 3.84058 5.28677 3.84058H19.7659C20.2347 3.84058 20.6427 3.98912 20.9899 4.2862C21.3371 4.584 21.5889 4.97626 21.7451 5.46298L22.8389 9.14044C23.0472 9.84349 23.043 10.4834 22.8264 11.0603C22.609 11.6372 22.3007 12.1329 21.9014 12.5475ZM14.818 11.4118C15.2868 11.4118 15.6427 11.2449 15.8857 10.911C16.1288 10.5779 16.2243 10.204 16.1722 9.78941L15.5993 6.00379H13.568V10.0057C13.568 10.3843 13.6895 10.7135 13.9326 10.9932C14.1757 11.2723 14.4708 11.4118 14.818 11.4118ZM10.1305 11.4118C10.5298 11.4118 10.8555 11.2723 11.1076 10.9932C11.359 10.7135 11.4847 10.3843 11.4847 10.0057V6.00379H9.45343L8.88052 9.78941C8.81107 10.222 8.90239 10.6006 9.15448 10.9251C9.40586 11.2496 9.73121 11.4118 10.1305 11.4118ZM5.4951 11.4118C5.8076 11.4118 6.08086 11.2946 6.31489 11.0603C6.54961 10.8259 6.69302 10.5285 6.7451 10.168L7.31802 6.00379H5.28677L4.2451 9.62717C4.14093 9.9877 4.19718 10.3753 4.41385 10.7899C4.63121 11.2045 4.99163 11.4118 5.4951 11.4118ZM19.5576 11.4118C20.0611 11.4118 20.4257 11.2045 20.6514 10.7899C20.877 10.3753 20.9291 9.9877 20.8076 9.62717L19.7139 6.00379H17.7347L18.3076 10.168C18.3597 10.5285 18.5031 10.8259 18.7378 11.0603C18.9718 11.2946 19.2451 11.4118 19.5576 11.4118ZM5.23468 21.1463H19.818V13.5209C19.7312 13.557 19.675 13.575 19.6493 13.575H19.5576C19.0889 13.575 18.6764 13.4939 18.3201 13.3317C17.9645 13.1694 17.6132 12.908 17.2659 12.5475C16.9534 12.872 16.5975 13.1244 16.1982 13.3046C15.7989 13.4849 15.3736 13.575 14.9222 13.575C14.4534 13.575 14.0149 13.4849 13.6066 13.3046C13.1989 13.1244 12.8389 12.872 12.5264 12.5475C12.2312 12.872 11.8885 13.1244 11.4982 13.3046C11.1073 13.4849 10.6861 13.575 10.2347 13.575C9.73121 13.575 9.27531 13.4849 8.86698 13.3046C8.45934 13.1244 8.09927 12.872 7.78677 12.5475C7.42218 12.9261 7.06211 13.1918 6.70656 13.3446C6.35031 13.4982 5.94649 13.575 5.4951 13.575H5.37843C5.33468 13.575 5.28677 13.557 5.23468 13.5209V21.1463Z" fill="white"/>
</svg>
