<svg width="24" height="24" viewBox="0 0 24 24" fill="none" xmlns="http://www.w3.org/2000/svg">
<path d="M3.5625 7.34286H18.1875C18.4983 7.34286 18.75 7.09354 18.75 6.78571V4.55714C18.75 4.24932 18.4983 4 18.1875 4H3.5625C3.25172 4 3 4.24932 3 4.55714V6.78571C3 7.09354 3.25172 7.34286 3.5625 7.34286ZM20.4375 10.1286H5.8125C5.50172 10.1286 5.25 10.3779 5.25 10.6857V12.9143C5.25 13.2221 5.50172 13.4714 5.8125 13.4714H20.4375C20.7483 13.4714 21 13.2221 21 12.9143V10.6857C21 10.3779 20.7483 10.1286 20.4375 10.1286ZM18.1875 16.2571H3.5625C3.25172 16.2571 3 16.5065 3 16.8143V19.0429C3 19.3507 3.25172 19.6 3.5625 19.6H18.1875C18.4983 19.6 18.75 19.3507 18.75 19.0429V16.8143C18.75 16.5065 18.4983 16.2571 18.1875 16.2571Z" fill="#424240"/>
</svg>
