<svg width="29" height="29" viewBox="0 0 29 29" fill="none" xmlns="http://www.w3.org/2000/svg">
<path d="M10.1096 28.0625L7.65547 23.9292L3.00547 22.8958L3.45755 18.1167L0.292969 14.5L3.45755 10.8833L3.00547 6.10417L7.65547 5.07083L10.1096 0.9375L14.5013 2.81042L18.893 0.9375L21.3471 5.07083L25.9971 6.10417L25.5451 10.8833L28.7096 14.5L25.5451 18.1167L25.9971 22.8958L21.3471 23.9292L18.893 28.0625L14.5013 26.1896L10.1096 28.0625ZM11.2076 24.7688L14.5013 23.3479L17.8596 24.7688L19.668 21.6687L23.2201 20.8292L22.8971 17.2125L25.2867 14.5L22.8971 11.7229L23.2201 8.10625L19.668 7.33125L17.7951 4.23125L14.5013 5.65208L11.143 4.23125L9.33464 7.33125L5.78255 8.10625L6.10547 11.7229L3.71589 14.5L6.10547 17.2125L5.78255 20.8938L9.33464 21.6687L11.2076 24.7688ZM13.1451 19.0854L20.443 11.7875L18.6346 9.91458L13.1451 15.4042L10.368 12.6917L8.55964 14.5L13.1451 19.0854Z" fill="#443E99"/>
</svg>
