<svg width="350" height="240" viewBox="0 0 350 240" fill="none" xmlns="http://www.w3.org/2000/svg">
<path d="M20 28C20 23.5817 23.5817 20 28 20H64C68.4183 20 72 23.5817 72 28V64C72 68.4183 68.4183 72 64 72H28C23.5817 72 20 68.4183 20 64V28Z" fill="#AF8BF8"/>
<path fill-rule="evenodd" clip-rule="evenodd" d="M43.7718 36.7305C43.631 36.6819 43.4482 36.6667 42.5261 36.6667H38.0668C37.3941 36.6667 36.9598 36.6676 36.6292 36.6946C36.3123 36.7205 36.1948 36.7645 36.1371 36.7939C35.9176 36.9057 35.7391 37.0842 35.6272 37.3037C35.5979 37.3614 35.5539 37.4789 35.528 37.7959C35.5043 38.0865 35.5007 38.4574 35.5002 39H45.279L44.8218 38.0855C44.4094 37.2608 44.314 37.1041 44.2077 36.9999C44.0841 36.8789 43.9352 36.7869 43.7718 36.7305ZM47.8878 39L46.9088 37.042C46.887 36.9984 46.8654 36.9551 46.844 36.9122C46.5351 36.2924 46.2635 35.7474 45.8404 35.3329C45.4697 34.9699 45.023 34.6938 44.5326 34.5247C43.9726 34.3315 43.3637 34.3323 42.6712 34.3333C42.6232 34.3333 42.5749 34.3334 42.5261 34.3334L38.0218 34.3334C37.4068 34.3334 36.8762 34.3333 36.4392 34.369C35.978 34.4067 35.5192 34.4899 35.0778 34.7149C34.4192 35.0504 33.8838 35.5858 33.5482 36.2444C33.3233 36.6859 33.2401 37.1446 33.2024 37.6058C33.1667 38.0428 33.1667 38.5734 33.1667 39.1884L33.1667 50.9482C33.1667 51.8874 33.1667 52.6624 33.2183 53.2938C33.2719 53.9496 33.3869 54.5524 33.6754 55.1187C34.1228 55.9968 34.8367 56.7107 35.7148 57.1581C36.281 57.4466 36.8838 57.5616 37.5396 57.6152C38.171 57.6667 38.9461 57.6667 39.8852 57.6667H52.115C53.0541 57.6667 53.8292 57.6667 54.4605 57.6152C55.1163 57.5616 55.7191 57.4466 56.2854 57.1581C57.1635 56.7107 57.8774 55.9968 58.3248 55.1187C58.6133 54.5524 58.7283 53.9496 58.7819 53.2938C58.8334 52.6625 58.8334 51.8874 58.8334 50.9483V45.7185C58.8334 44.7794 58.8334 44.0043 58.7819 43.3729C58.7283 42.7171 58.6133 42.1143 58.3248 41.5481C57.8774 40.67 57.1635 39.9561 56.2854 39.5087C55.7191 39.2202 55.1163 39.1052 54.4605 39.0516C53.8292 39 53.0541 39 52.1149 39L47.8878 39ZM47.1433 41.3334C47.1595 41.3337 47.1758 41.3337 47.192 41.3334H52.0668C53.0661 41.3334 53.7454 41.3343 54.2705 41.3772C54.782 41.419 55.0436 41.4947 55.2261 41.5877C55.6651 41.8114 56.0221 42.1684 56.2458 42.6074C56.3387 42.7899 56.4145 43.0514 56.4563 43.5629C56.4992 44.088 56.5001 44.7674 56.5001 45.7667V50.9C56.5001 51.8994 56.4992 52.5787 56.4563 53.1038C56.4145 53.6153 56.3387 53.8769 56.2458 54.0594C56.0221 54.4984 55.6651 54.8554 55.2261 55.0791C55.0436 55.172 54.782 55.2478 54.2705 55.2896C53.7454 55.3325 53.0661 55.3334 52.0668 55.3334H39.9334C38.9341 55.3334 38.2547 55.3325 37.7296 55.2896C37.2181 55.2478 36.9566 55.172 36.7741 55.0791C36.3351 54.8554 35.9781 54.4984 35.7544 54.0594C35.6614 53.8769 35.5857 53.6153 35.5439 53.1038C35.501 52.5787 35.5001 51.8994 35.5001 50.9V41.3334H47.1433Z" fill="white"/>
<path d="M85.464 59V35.16H94.136C95.736 35.16 97.144 35.4587 98.36 36.056C99.576 36.632 100.525 37.4853 101.208 38.616C101.912 39.7253 102.264 41.0587 102.264 42.616C102.264 44.2587 101.848 45.6667 101.016 46.84C100.205 48.0133 99.1067 48.8667 97.72 49.4L103.224 59H98.936L93.08 48.6L95.544 50.04H89.24V59H85.464ZM89.24 46.68H94.2C95.0747 46.68 95.832 46.5093 96.472 46.168C97.112 45.8267 97.6027 45.3573 97.944 44.76C98.3067 44.1413 98.488 43.416 98.488 42.584C98.488 41.752 98.3067 41.0373 97.944 40.44C97.6027 39.8213 97.112 39.352 96.472 39.032C95.832 38.6907 95.0747 38.52 94.2 38.52H89.24V46.68ZM112.249 59.384C110.521 59.384 108.985 58.9893 107.641 58.2C106.318 57.3893 105.283 56.3013 104.537 54.936C103.79 53.5493 103.417 52.0027 103.417 50.296C103.417 48.5467 103.79 47 104.537 45.656C105.305 44.312 106.329 43.256 107.609 42.488C108.889 41.6987 110.339 41.304 111.961 41.304C113.262 41.304 114.425 41.528 115.449 41.976C116.473 42.424 117.337 43.0427 118.041 43.832C118.745 44.6 119.278 45.4853 119.641 46.488C120.025 47.4907 120.217 48.5573 120.217 49.688C120.217 49.9653 120.206 50.2533 120.185 50.552C120.163 50.8507 120.121 51.128 120.057 51.384H106.265V48.504H118.009L116.281 49.816C116.494 48.7707 116.419 47.8427 116.057 47.032C115.715 46.2 115.182 45.5493 114.457 45.08C113.753 44.5893 112.921 44.344 111.961 44.344C111.001 44.344 110.147 44.5893 109.401 45.08C108.654 45.5493 108.078 46.232 107.673 47.128C107.267 48.0027 107.107 49.0693 107.193 50.328C107.086 51.5013 107.246 52.5253 107.673 53.4C108.121 54.2747 108.739 54.9573 109.529 55.448C110.339 55.9387 111.257 56.184 112.281 56.184C113.326 56.184 114.211 55.9493 114.937 55.48C115.683 55.0107 116.27 54.4027 116.697 53.656L119.641 55.096C119.299 55.9067 118.766 56.6427 118.041 57.304C117.337 57.944 116.483 58.456 115.481 58.84C114.499 59.2027 113.422 59.384 112.249 59.384ZM122.786 65.4V41.688H126.242V45.272L125.826 44.44C126.466 43.4587 127.319 42.6907 128.386 42.136C129.452 41.5813 130.668 41.304 132.034 41.304C133.676 41.304 135.148 41.6987 136.45 42.488C137.772 43.2773 138.807 44.3547 139.554 45.72C140.322 47.0853 140.706 48.6213 140.706 50.328C140.706 52.0347 140.322 53.5707 139.554 54.936C138.807 56.3013 137.783 57.3893 136.482 58.2C135.18 58.9893 133.698 59.384 132.034 59.384C130.69 59.384 129.463 59.1067 128.354 58.552C127.266 57.9973 126.423 57.1973 125.826 56.152L126.402 55.48V65.4H122.786ZM131.682 56.024C132.706 56.024 133.612 55.7787 134.402 55.288C135.191 54.7973 135.81 54.1253 136.258 53.272C136.727 52.3973 136.962 51.416 136.962 50.328C136.962 49.24 136.727 48.2693 136.258 47.416C135.81 46.5627 135.191 45.8907 134.402 45.4C133.612 44.9093 132.706 44.664 131.682 44.664C130.679 44.664 129.772 44.9093 128.962 45.4C128.172 45.8907 127.543 46.5627 127.074 47.416C126.626 48.2693 126.402 49.24 126.402 50.328C126.402 51.416 126.626 52.3973 127.074 53.272C127.543 54.1253 128.172 54.7973 128.962 55.288C129.772 55.7787 130.679 56.024 131.682 56.024ZM151.615 59.384C149.951 59.384 148.426 58.9893 147.039 58.2C145.674 57.4107 144.586 56.3333 143.775 54.968C142.965 53.6027 142.559 52.056 142.559 50.328C142.559 48.5787 142.965 47.032 143.775 45.688C144.586 44.3227 145.674 43.256 147.039 42.488C148.405 41.6987 149.93 41.304 151.615 41.304C153.322 41.304 154.847 41.6987 156.191 42.488C157.557 43.256 158.634 44.3227 159.423 45.688C160.234 47.032 160.639 48.5787 160.639 50.328C160.639 52.0773 160.234 53.6347 159.423 55C158.613 56.3653 157.525 57.4427 156.159 58.232C154.794 59 153.279 59.384 151.615 59.384ZM151.615 56.024C152.639 56.024 153.546 55.7787 154.335 55.288C155.125 54.7973 155.743 54.1253 156.191 53.272C156.661 52.3973 156.895 51.416 156.895 50.328C156.895 49.24 156.661 48.2693 156.191 47.416C155.743 46.5627 155.125 45.8907 154.335 45.4C153.546 44.9093 152.639 44.664 151.615 44.664C150.613 44.664 149.706 44.9093 148.895 45.4C148.106 45.8907 147.477 46.5627 147.007 47.416C146.559 48.2693 146.335 49.24 146.335 50.328C146.335 51.416 146.559 52.3973 147.007 53.272C147.477 54.1253 148.106 54.7973 148.895 55.288C149.706 55.7787 150.613 56.024 151.615 56.024ZM169.61 59.384C167.839 59.384 166.282 58.9467 164.938 58.072C163.615 57.1973 162.687 56.024 162.154 54.552L164.938 53.24C165.407 54.2213 166.047 55 166.858 55.576C167.69 56.152 168.607 56.44 169.61 56.44C170.463 56.44 171.156 56.248 171.69 55.864C172.223 55.48 172.49 54.9573 172.49 54.296C172.49 53.8693 172.372 53.528 172.138 53.272C171.903 52.9947 171.604 52.7707 171.242 52.6C170.9 52.4293 170.548 52.3013 170.186 52.216L167.466 51.448C165.972 51.0213 164.852 50.3813 164.106 49.528C163.38 48.6533 163.018 47.64 163.018 46.488C163.018 45.4427 163.284 44.536 163.818 43.768C164.351 42.9787 165.087 42.3707 166.026 41.944C166.964 41.5173 168.02 41.304 169.194 41.304C170.772 41.304 172.18 41.6987 173.418 42.488C174.655 43.256 175.53 44.3333 176.042 45.72L173.258 47.032C172.916 46.2 172.372 45.5387 171.626 45.048C170.9 44.5573 170.079 44.312 169.162 44.312C168.372 44.312 167.743 44.504 167.274 44.888C166.804 45.2507 166.57 45.7307 166.57 46.328C166.57 46.7333 166.676 47.0747 166.89 47.352C167.103 47.608 167.38 47.8213 167.722 47.992C168.063 48.1413 168.415 48.2693 168.778 48.376L171.594 49.208C173.023 49.6133 174.122 50.2533 174.89 51.128C175.658 51.9813 176.042 53.0053 176.042 54.2C176.042 55.224 175.764 56.1307 175.21 56.92C174.676 57.688 173.93 58.296 172.97 58.744C172.01 59.1707 170.89 59.384 169.61 59.384ZM178.624 59V41.688H182.24V59H178.624ZM178.624 39.32V35.16H182.24V39.32H178.624ZM192.996 59.192C191.183 59.192 189.775 58.68 188.772 57.656C187.77 56.632 187.268 55.192 187.268 53.336V44.952H184.228V41.688H184.708C185.519 41.688 186.148 41.4533 186.596 40.984C187.044 40.5147 187.268 39.8747 187.268 39.064V37.72H190.884V41.688H194.82V44.952H190.884V53.176C190.884 53.7733 190.98 54.2853 191.172 54.712C191.364 55.1173 191.674 55.4373 192.1 55.672C192.527 55.8853 193.082 55.992 193.764 55.992C193.935 55.992 194.127 55.9813 194.34 55.96C194.554 55.9387 194.756 55.9173 194.948 55.896V59C194.65 59.0427 194.319 59.0853 193.956 59.128C193.594 59.1707 193.274 59.192 192.996 59.192ZM205.556 59.384C203.892 59.384 202.367 58.9893 200.98 58.2C199.615 57.4107 198.527 56.3333 197.716 54.968C196.906 53.6027 196.5 52.056 196.5 50.328C196.5 48.5787 196.906 47.032 197.716 45.688C198.527 44.3227 199.615 43.256 200.98 42.488C202.346 41.6987 203.871 41.304 205.556 41.304C207.263 41.304 208.788 41.6987 210.132 42.488C211.498 43.256 212.575 44.3227 213.365 45.688C214.175 47.032 214.58 48.5787 214.58 50.328C214.58 52.0773 214.175 53.6347 213.365 55C212.554 56.3653 211.466 57.4427 210.1 58.232C208.735 59 207.22 59.384 205.556 59.384ZM205.556 56.024C206.58 56.024 207.487 55.7787 208.276 55.288C209.066 54.7973 209.684 54.1253 210.132 53.272C210.602 52.3973 210.836 51.416 210.836 50.328C210.836 49.24 210.602 48.2693 210.132 47.416C209.684 46.5627 209.066 45.8907 208.276 45.4C207.487 44.9093 206.58 44.664 205.556 44.664C204.554 44.664 203.647 44.9093 202.836 45.4C202.047 45.8907 201.418 46.5627 200.948 47.416C200.5 48.2693 200.276 49.24 200.276 50.328C200.276 51.416 200.5 52.3973 200.948 53.272C201.418 54.1253 202.047 54.7973 202.836 55.288C203.647 55.7787 204.554 56.024 205.556 56.024ZM217.151 59V41.688H220.607V45.176L220.287 44.664C220.671 43.5333 221.289 42.7227 222.143 42.232C222.996 41.72 224.02 41.464 225.215 41.464H226.271V44.76H224.767C223.572 44.76 222.601 45.1333 221.855 45.88C221.129 46.6053 220.767 47.6507 220.767 49.016V59H217.151ZM227.785 59V41.688H231.401V59H227.785ZM227.785 39.32V35.16H231.401V39.32H227.785ZM242.796 59.384C241.068 59.384 239.532 58.9893 238.188 58.2C236.866 57.3893 235.831 56.3013 235.084 54.936C234.338 53.5493 233.964 52.0027 233.964 50.296C233.964 48.5467 234.338 47 235.084 45.656C235.852 44.312 236.876 43.256 238.156 42.488C239.436 41.6987 240.887 41.304 242.508 41.304C243.81 41.304 244.972 41.528 245.996 41.976C247.02 42.424 247.884 43.0427 248.588 43.832C249.292 44.6 249.826 45.4853 250.188 46.488C250.572 47.4907 250.764 48.5573 250.764 49.688C250.764 49.9653 250.754 50.2533 250.732 50.552C250.711 50.8507 250.668 51.128 250.604 51.384H236.812V48.504H248.556L246.828 49.816C247.042 48.7707 246.967 47.8427 246.604 47.032C246.263 46.2 245.73 45.5493 245.004 45.08C244.3 44.5893 243.468 44.344 242.508 44.344C241.548 44.344 240.695 44.5893 239.948 45.08C239.202 45.5493 238.626 46.232 238.22 47.128C237.815 48.0027 237.655 49.0693 237.74 50.328C237.634 51.5013 237.794 52.5253 238.22 53.4C238.668 54.2747 239.287 54.9573 240.076 55.448C240.887 55.9387 241.804 56.184 242.828 56.184C243.874 56.184 244.759 55.9493 245.484 55.48C246.231 55.0107 246.818 54.4027 247.244 53.656L250.188 55.096C249.847 55.9067 249.314 56.6427 248.588 57.304C247.884 57.944 247.031 58.456 246.028 58.84C245.047 59.2027 243.97 59.384 242.796 59.384ZM259.733 59.384C257.963 59.384 256.405 58.9467 255.061 58.072C253.739 57.1973 252.811 56.024 252.277 54.552L255.061 53.24C255.531 54.2213 256.171 55 256.981 55.576C257.813 56.152 258.731 56.44 259.733 56.44C260.587 56.44 261.28 56.248 261.813 55.864C262.347 55.48 262.613 54.9573 262.613 54.296C262.613 53.8693 262.496 53.528 262.261 53.272C262.027 52.9947 261.728 52.7707 261.365 52.6C261.024 52.4293 260.672 52.3013 260.309 52.216L257.589 51.448C256.096 51.0213 254.976 50.3813 254.229 49.528C253.504 48.6533 253.141 47.64 253.141 46.488C253.141 45.4427 253.408 44.536 253.941 43.768C254.475 42.9787 255.211 42.3707 256.149 41.944C257.088 41.5173 258.144 41.304 259.317 41.304C260.896 41.304 262.304 41.6987 263.541 42.488C264.779 43.256 265.653 44.3333 266.165 45.72L263.381 47.032C263.04 46.2 262.496 45.5387 261.749 45.048C261.024 44.5573 260.203 44.312 259.285 44.312C258.496 44.312 257.867 44.504 257.397 44.888C256.928 45.2507 256.693 45.7307 256.693 46.328C256.693 46.7333 256.8 47.0747 257.013 47.352C257.227 47.608 257.504 47.8213 257.845 47.992C258.187 48.1413 258.539 48.2693 258.901 48.376L261.717 49.208C263.147 49.6133 264.245 50.2533 265.013 51.128C265.781 51.9813 266.165 53.0053 266.165 54.2C266.165 55.224 265.888 56.1307 265.333 56.92C264.8 57.688 264.053 58.296 263.093 58.744C262.133 59.1707 261.013 59.384 259.733 59.384Z" fill="#431D93"/>
<path d="M184.408 207.192C183.661 207.192 182.968 207.053 182.328 206.776C181.688 206.488 181.144 206.099 180.696 205.608C180.248 205.117 179.917 204.552 179.704 203.912L181.304 203.24C181.592 203.976 182.013 204.541 182.568 204.936C183.123 205.331 183.763 205.528 184.488 205.528C184.915 205.528 185.288 205.464 185.608 205.336C185.928 205.197 186.173 205.005 186.344 204.76C186.525 204.515 186.616 204.232 186.616 203.912C186.616 203.475 186.493 203.128 186.248 202.872C186.003 202.616 185.64 202.413 185.16 202.264L182.92 201.56C182.024 201.283 181.341 200.861 180.872 200.296C180.403 199.72 180.168 199.048 180.168 198.28C180.168 197.608 180.333 197.021 180.664 196.52C180.995 196.008 181.448 195.608 182.024 195.32C182.611 195.032 183.277 194.888 184.024 194.888C184.739 194.888 185.389 195.016 185.976 195.272C186.563 195.517 187.064 195.859 187.48 196.296C187.907 196.733 188.216 197.24 188.408 197.816L186.84 198.504C186.605 197.875 186.237 197.389 185.736 197.048C185.245 196.707 184.675 196.536 184.024 196.536C183.629 196.536 183.283 196.605 182.984 196.744C182.685 196.872 182.451 197.064 182.28 197.32C182.12 197.565 182.04 197.853 182.04 198.184C182.04 198.568 182.163 198.909 182.408 199.208C182.653 199.507 183.027 199.731 183.528 199.88L185.608 200.536C186.557 200.824 187.272 201.24 187.752 201.784C188.232 202.317 188.472 202.984 188.472 203.784C188.472 204.445 188.296 205.032 187.944 205.544C187.603 206.056 187.128 206.461 186.52 206.76C185.912 207.048 185.208 207.192 184.408 207.192ZM193.999 207.096C193.093 207.096 192.389 206.84 191.887 206.328C191.386 205.816 191.135 205.096 191.135 204.168V199.976H189.615V198.344H189.855C190.261 198.344 190.575 198.227 190.799 197.992C191.023 197.757 191.135 197.437 191.135 197.032V196.36H192.943V198.344H194.911V199.976H192.943V204.088C192.943 204.387 192.991 204.643 193.087 204.856C193.183 205.059 193.338 205.219 193.551 205.336C193.765 205.443 194.042 205.496 194.383 205.496C194.469 205.496 194.565 205.491 194.671 205.48C194.778 205.469 194.879 205.459 194.975 205.448V207C194.826 207.021 194.661 207.043 194.479 207.064C194.298 207.085 194.138 207.096 193.999 207.096ZM199.094 207.192C198.507 207.192 197.99 207.091 197.542 206.888C197.104 206.675 196.763 206.387 196.518 206.024C196.272 205.651 196.15 205.213 196.15 204.712C196.15 204.243 196.251 203.821 196.454 203.448C196.667 203.075 196.992 202.76 197.43 202.504C197.867 202.248 198.416 202.067 199.078 201.96L202.086 201.464V202.888L199.43 203.352C198.95 203.437 198.598 203.592 198.374 203.816C198.15 204.029 198.038 204.307 198.038 204.648C198.038 204.979 198.16 205.251 198.406 205.464C198.662 205.667 198.987 205.768 199.382 205.768C199.872 205.768 200.299 205.661 200.662 205.448C201.035 205.235 201.323 204.952 201.526 204.6C201.728 204.237 201.83 203.837 201.83 203.4V201.176C201.83 200.749 201.67 200.403 201.35 200.136C201.04 199.859 200.624 199.72 200.102 199.72C199.622 199.72 199.2 199.848 198.838 200.104C198.486 200.349 198.224 200.669 198.054 201.064L196.55 200.312C196.71 199.885 196.971 199.512 197.334 199.192C197.696 198.861 198.118 198.605 198.598 198.424C199.088 198.243 199.606 198.152 200.15 198.152C200.832 198.152 201.435 198.28 201.958 198.536C202.491 198.792 202.902 199.149 203.19 199.608C203.488 200.056 203.638 200.579 203.638 201.176V207H201.91V205.432L202.278 205.48C202.075 205.832 201.814 206.136 201.494 206.392C201.184 206.648 200.827 206.845 200.422 206.984C200.027 207.123 199.584 207.192 199.094 207.192ZM205.592 207V198.344H207.32V200.088L207.16 199.832C207.352 199.267 207.661 198.861 208.088 198.616C208.514 198.36 209.026 198.232 209.624 198.232H210.152V199.88H209.4C208.802 199.88 208.317 200.067 207.944 200.44C207.581 200.803 207.4 201.325 207.4 202.008V207H205.592ZM215.129 207.096C214.222 207.096 213.518 206.84 213.017 206.328C212.515 205.816 212.265 205.096 212.265 204.168V199.976H210.745V198.344H210.985C211.39 198.344 211.705 198.227 211.929 197.992C212.153 197.757 212.265 197.437 212.265 197.032V196.36H214.073V198.344H216.041V199.976H214.073V204.088C214.073 204.387 214.121 204.643 214.217 204.856C214.313 205.059 214.467 205.219 214.681 205.336C214.894 205.443 215.171 205.496 215.513 205.496C215.598 205.496 215.694 205.491 215.801 205.48C215.907 205.469 216.009 205.459 216.105 205.448V207C215.955 207.021 215.79 207.043 215.609 207.064C215.427 207.085 215.267 207.096 215.129 207.096ZM221.617 207.192C220.753 207.192 219.985 206.995 219.313 206.6C218.652 206.195 218.134 205.651 217.761 204.968C217.388 204.275 217.201 203.501 217.201 202.648C217.201 201.773 217.388 201 217.761 200.328C218.145 199.656 218.657 199.128 219.297 198.744C219.937 198.349 220.662 198.152 221.473 198.152C222.124 198.152 222.705 198.264 223.217 198.488C223.729 198.712 224.161 199.021 224.513 199.416C224.865 199.8 225.132 200.243 225.313 200.744C225.505 201.245 225.601 201.779 225.601 202.344C225.601 202.483 225.596 202.627 225.585 202.776C225.574 202.925 225.553 203.064 225.521 203.192H218.625V201.752H224.497L223.633 202.408C223.74 201.885 223.702 201.421 223.521 201.016C223.35 200.6 223.084 200.275 222.721 200.04C222.369 199.795 221.953 199.672 221.473 199.672C220.993 199.672 220.566 199.795 220.193 200.04C219.82 200.275 219.532 200.616 219.329 201.064C219.126 201.501 219.046 202.035 219.089 202.664C219.036 203.251 219.116 203.763 219.329 204.2C219.553 204.637 219.862 204.979 220.257 205.224C220.662 205.469 221.121 205.592 221.633 205.592C222.156 205.592 222.598 205.475 222.961 205.24C223.334 205.005 223.628 204.701 223.841 204.328L225.313 205.048C225.142 205.453 224.876 205.821 224.513 206.152C224.161 206.472 223.734 206.728 223.233 206.92C222.742 207.101 222.204 207.192 221.617 207.192ZM227.205 207V198.344H228.933V200.088L228.773 199.832C228.965 199.267 229.275 198.861 229.701 198.616C230.128 198.36 230.64 198.232 231.237 198.232H231.765V199.88H231.013C230.416 199.88 229.931 200.067 229.557 200.44C229.195 200.803 229.013 201.325 229.013 202.008V207H227.205ZM241.239 207.192C240.396 207.192 239.612 207.037 238.887 206.728C238.172 206.419 237.543 205.992 236.999 205.448C236.466 204.893 236.05 204.243 235.751 203.496C235.452 202.749 235.303 201.928 235.303 201.032C235.303 200.147 235.447 199.331 235.735 198.584C236.034 197.827 236.45 197.176 236.983 196.632C237.516 196.077 238.14 195.651 238.855 195.352C239.57 195.043 240.354 194.888 241.207 194.888C242.05 194.888 242.802 195.032 243.463 195.32C244.135 195.608 244.7 195.987 245.159 196.456C245.618 196.915 245.948 197.416 246.151 197.96L244.471 198.776C244.226 198.125 243.82 197.603 243.255 197.208C242.69 196.803 242.007 196.6 241.207 196.6C240.418 196.6 239.719 196.787 239.111 197.16C238.503 197.533 238.028 198.051 237.687 198.712C237.356 199.373 237.191 200.147 237.191 201.032C237.191 201.917 237.362 202.696 237.703 203.368C238.055 204.029 238.535 204.547 239.143 204.92C239.751 205.283 240.45 205.464 241.239 205.464C241.9 205.464 242.503 205.331 243.047 205.064C243.602 204.787 244.044 204.403 244.375 203.912C244.706 203.411 244.871 202.829 244.871 202.168V201.352L245.719 202.12H241.207V200.52H246.743V201.64C246.743 202.515 246.594 203.299 246.295 203.992C245.996 204.675 245.591 205.256 245.079 205.736C244.567 206.216 243.98 206.579 243.319 206.824C242.658 207.069 241.964 207.192 241.239 207.192ZM251.423 207.192C250.772 207.192 250.201 207.048 249.711 206.76C249.22 206.461 248.836 206.051 248.559 205.528C248.292 204.995 248.159 204.381 248.159 203.688V198.344H249.967V203.528C249.967 203.923 250.047 204.269 250.207 204.568C250.367 204.867 250.591 205.101 250.879 205.272C251.167 205.432 251.497 205.512 251.871 205.512C252.255 205.512 252.591 205.427 252.879 205.256C253.167 205.085 253.391 204.845 253.551 204.536C253.721 204.227 253.807 203.864 253.807 203.448V198.344H255.599V207H253.887V205.304L254.079 205.528C253.876 206.061 253.54 206.472 253.071 206.76C252.601 207.048 252.052 207.192 251.423 207.192ZM257.55 207V198.344H259.358V207H257.55ZM257.55 197.16V195.08H259.358V197.16H257.55ZM265.312 207.192C264.48 207.192 263.733 206.995 263.072 206.6C262.421 206.195 261.904 205.651 261.52 204.968C261.146 204.285 260.96 203.517 260.96 202.664C260.96 201.811 261.152 201.043 261.536 200.36C261.92 199.677 262.437 199.139 263.088 198.744C263.738 198.349 264.474 198.152 265.296 198.152C265.989 198.152 266.602 198.291 267.136 198.568C267.669 198.845 268.09 199.229 268.4 199.72L268.128 200.136V194.888H269.92V207H268.208V205.24L268.416 205.576C268.117 206.099 267.69 206.499 267.136 206.776C266.581 207.053 265.973 207.192 265.312 207.192ZM265.488 205.512C265.989 205.512 266.437 205.389 266.832 205.144C267.237 204.899 267.552 204.563 267.776 204.136C268.01 203.699 268.128 203.208 268.128 202.664C268.128 202.12 268.01 201.635 267.776 201.208C267.552 200.781 267.237 200.445 266.832 200.2C266.437 199.955 265.989 199.832 265.488 199.832C264.986 199.832 264.533 199.955 264.128 200.2C263.722 200.445 263.408 200.781 263.184 201.208C262.96 201.635 262.848 202.12 262.848 202.664C262.848 203.208 262.96 203.699 263.184 204.136C263.408 204.563 263.717 204.899 264.112 205.144C264.517 205.389 264.976 205.512 265.488 205.512ZM275.934 207.192C275.07 207.192 274.302 206.995 273.63 206.6C272.969 206.195 272.452 205.651 272.078 204.968C271.705 204.275 271.518 203.501 271.518 202.648C271.518 201.773 271.705 201 272.078 200.328C272.462 199.656 272.974 199.128 273.614 198.744C274.254 198.349 274.98 198.152 275.79 198.152C276.441 198.152 277.022 198.264 277.534 198.488C278.046 198.712 278.478 199.021 278.83 199.416C279.182 199.8 279.449 200.243 279.63 200.744C279.822 201.245 279.918 201.779 279.918 202.344C279.918 202.483 279.913 202.627 279.902 202.776C279.892 202.925 279.87 203.064 279.838 203.192H272.942V201.752H278.814L277.95 202.408C278.057 201.885 278.02 201.421 277.838 201.016C277.668 200.6 277.401 200.275 277.038 200.04C276.686 199.795 276.27 199.672 275.79 199.672C275.31 199.672 274.884 199.795 274.51 200.04C274.137 200.275 273.849 200.616 273.646 201.064C273.444 201.501 273.364 202.035 273.406 202.664C273.353 203.251 273.433 203.763 273.646 204.2C273.87 204.637 274.18 204.979 274.574 205.224C274.98 205.469 275.438 205.592 275.95 205.592C276.473 205.592 276.916 205.475 277.278 205.24C277.652 205.005 277.945 204.701 278.158 204.328L279.63 205.048C279.46 205.453 279.193 205.821 278.83 206.152C278.478 206.472 278.052 206.728 277.55 206.92C277.06 207.101 276.521 207.192 275.934 207.192Z" fill="#7A3EF4"/>
<path d="M175 150C191.569 150 205 136.569 205 120C205 103.431 191.569 90 175 90C158.431 90 145 103.431 145 120C145 136.569 158.431 150 175 150Z" fill="#431D93"/>
<path d="M167.047 132.996V109.203L186.703 121.099L167.047 132.996Z" fill="white"/>
<path d="M325.834 205.218C326.558 203.009 326.814 200.674 326.585 198.361C326.357 196.049 325.648 193.809 324.506 191.785L313.039 191.495V191.351L324.076 191.072C322.743 188.974 320.96 187.198 318.856 185.874L310 185.652V185.509L317.871 185.31C314.646 183.581 310.941 182.962 307.329 183.549C303.717 184.136 300.398 185.895 297.886 188.556L307.791 188.807V188.95L297.294 189.213C294.732 192.223 293.328 196.048 293.333 200C293.333 200.179 293.333 200.353 293.342 200.528C293.342 200.54 293.342 200.552 293.342 200.563L297.299 200.664V200.807L293.355 200.907C293.356 200.919 293.356 200.931 293.355 200.942C293.499 203.543 294.255 206.073 295.559 208.328L302.153 208.495V208.638L295.842 208.798C297.39 211.284 299.563 213.319 302.144 214.702C302.35 214.814 302.558 214.919 302.769 215.021V201.176H304.367C304.429 201.176 304.49 201.188 304.547 201.212C304.604 201.235 304.655 201.27 304.699 201.313C304.742 201.357 304.777 201.409 304.8 201.465C304.824 201.522 304.836 201.583 304.836 201.645V215.851C308.193 216.939 311.807 216.939 315.164 215.851V201.645C315.164 201.583 315.176 201.522 315.199 201.465C315.223 201.409 315.257 201.357 315.301 201.313C315.344 201.27 315.396 201.235 315.453 201.212C315.51 201.188 315.571 201.176 315.632 201.176H317.23V215.023C317.438 214.922 317.645 214.817 317.848 214.708C319.478 213.837 320.952 212.702 322.209 211.347L318.069 211.242V211.099L322.536 210.986C323.906 209.425 324.972 207.622 325.678 205.669L319.718 205.517V205.374L325.834 205.218ZM319.542 200.737H300.458L300.113 199.359H302.769V197.882H303.311C303.505 197.882 303.697 197.92 303.875 197.995C304.054 198.069 304.217 198.177 304.354 198.314C304.491 198.451 304.599 198.614 304.673 198.793C304.747 198.972 304.785 199.164 304.785 199.357H308.967V197.39H298.836C298.638 195.816 297.704 194.587 297.704 194.587C300.458 195.225 310 195.275 310 195.275C310 195.275 319.541 195.225 322.294 194.587C322.294 194.587 321.362 195.816 321.164 197.39H311.033V199.358H315.215C315.215 199.164 315.253 198.972 315.328 198.793C315.402 198.614 315.511 198.452 315.648 198.315C315.785 198.178 315.947 198.069 316.126 197.995C316.305 197.921 316.497 197.883 316.691 197.883H317.232V199.358H319.889L319.542 200.737Z" fill="#431D93"/>
</svg>
