<svg width="262" height="48" viewBox="0 0 262 48" fill="none" xmlns="http://www.w3.org/2000/svg">
<rect x="0.5" y="0.5" width="260.677" height="47" rx="23.5" fill="white" stroke="#DEDEDE"/>
<path d="M56.6641 30.0645V16.6976H60.2409C62.2848 16.6976 63.879 17.2494 65.0236 18.3531C66.1681 19.4568 66.7404 21.1124 66.7404 23.3197C66.7404 25.5408 66.1749 27.2235 65.044 28.3681C63.9131 29.499 62.3529 30.0645 60.3635 30.0645H56.6641ZM59.035 28.1433H60.0774C61.4263 28.1433 62.4687 27.7549 63.2045 26.9783C63.9403 26.188 64.3082 24.9685 64.3082 23.3197C64.3082 21.6846 63.9403 20.4924 63.2045 19.743C62.4687 18.9936 61.4263 18.6188 60.0774 18.6188H59.035V28.1433Z" fill="black"/>
<path d="M73.5261 30.3098C72.5995 30.3098 71.7615 30.1054 71.0121 29.6966C70.2627 29.2742 69.67 28.6747 69.2339 27.898C68.7979 27.1077 68.5799 26.1607 68.5799 25.057C68.5799 23.967 68.7979 23.0268 69.2339 22.2365C69.6836 21.4462 70.2627 20.8398 70.9712 20.4174C71.6798 19.995 72.4224 19.7838 73.199 19.7838C74.112 19.7838 74.875 19.9882 75.4882 20.397C76.1013 20.7922 76.5646 21.3508 76.878 22.073C77.1914 22.7815 77.3481 23.6059 77.3481 24.5461C77.3481 25.0366 77.314 25.4181 77.2459 25.6906H70.869C70.978 26.5763 71.2982 27.2644 71.8296 27.7549C72.3611 28.2455 73.0287 28.4907 73.8326 28.4907C74.2687 28.4907 74.6706 28.4294 75.0385 28.3068C75.42 28.1705 75.7948 27.9866 76.1627 27.7549L76.9598 29.2265C76.4829 29.5399 75.9515 29.7988 75.3655 30.0032C74.7796 30.2076 74.1665 30.3098 73.5261 30.3098ZM70.8486 24.0964H75.3042C75.3042 23.3197 75.1339 22.7134 74.7933 22.2774C74.4526 21.8277 73.9416 21.6029 73.2604 21.6029C72.6744 21.6029 72.1499 21.8209 71.6866 22.2569C71.2369 22.6793 70.9576 23.2925 70.8486 24.0964Z" fill="black"/>
<path d="M79.593 34.0296V20.0291H81.5347L81.6982 21.0919H81.7799C82.2023 20.7377 82.6724 20.4311 83.1902 20.1722C83.7216 19.9133 84.2598 19.7838 84.8049 19.7838C86.0584 19.7838 87.0259 20.2471 87.7072 21.1737C88.4021 22.1002 88.7495 23.3402 88.7495 24.8935C88.7495 26.0381 88.5452 27.0192 88.1364 27.8367C87.7276 28.6406 87.1962 29.2538 86.5422 29.6762C85.9018 30.0986 85.2068 30.3098 84.4574 30.3098C84.0214 30.3098 83.5854 30.2144 83.1493 30.0236C82.7133 29.8193 82.2909 29.5467 81.8821 29.2061L81.9435 30.8821V34.0296H79.593ZM83.9669 28.3681C84.6346 28.3681 85.1932 28.0752 85.6429 27.4892C86.0925 26.9033 86.3173 26.0449 86.3173 24.914C86.3173 23.9057 86.147 23.1222 85.8064 22.5635C85.4657 22.0049 84.9139 21.7255 84.1508 21.7255C83.4423 21.7255 82.7065 22.1002 81.9435 22.8497V27.5301C82.3114 27.8299 82.6656 28.0479 83.0063 28.1842C83.3469 28.3068 83.6671 28.3681 83.9669 28.3681Z" fill="black"/>
<path d="M93.4188 30.3098C92.5877 30.3098 91.9949 30.0577 91.6407 29.5536C91.3 29.0494 91.1297 28.3613 91.1297 27.4892V15.6348H93.4801V27.6119C93.4801 27.898 93.5347 28.1024 93.6437 28.225C93.7527 28.334 93.8685 28.3885 93.9911 28.3885C94.0456 28.3885 94.0933 28.3885 94.1342 28.3885C94.1887 28.3749 94.2636 28.3613 94.359 28.3477L94.6656 30.1054C94.5293 30.1599 94.3522 30.2076 94.1342 30.2485C93.9298 30.2893 93.6914 30.3098 93.4188 30.3098Z" fill="black"/>
<path d="M100.787 30.3098C99.9555 30.3098 99.1788 30.1054 98.4567 29.6966C97.7345 29.2742 97.1486 28.6747 96.6989 27.898C96.2493 27.1077 96.0244 26.1607 96.0244 25.057C96.0244 23.9397 96.2493 22.9927 96.6989 22.2161C97.1486 21.4258 97.7345 20.8262 98.4567 20.4174C99.1788 19.995 99.9555 19.7838 100.787 19.7838C101.631 19.7838 102.415 19.995 103.137 20.4174C103.859 20.8262 104.445 21.4258 104.895 22.2161C105.345 22.9927 105.569 23.9397 105.569 25.057C105.569 26.1607 105.345 27.1077 104.895 27.898C104.445 28.6747 103.859 29.2742 103.137 29.6966C102.415 30.1054 101.631 30.3098 100.787 30.3098ZM100.787 28.3885C101.522 28.3885 102.102 28.082 102.524 27.4688C102.946 26.8556 103.158 26.0517 103.158 25.057C103.158 24.0487 102.946 23.238 102.524 22.6248C102.102 22.0117 101.522 21.7051 100.787 21.7051C100.051 21.7051 99.4718 22.0117 99.0494 22.6248C98.6406 23.238 98.4362 24.0487 98.4362 25.057C98.4362 26.0517 98.6406 26.8556 99.0494 27.4688C99.4718 28.082 100.051 28.3885 100.787 28.3885Z" fill="black"/>
<path d="M108.451 34.1931C108.178 34.1931 107.94 34.1727 107.735 34.1318C107.531 34.0909 107.333 34.0433 107.142 33.9888L107.572 32.1493C107.667 32.1765 107.776 32.2038 107.899 32.231C108.035 32.2719 108.164 32.2923 108.287 32.2923C108.818 32.2923 109.241 32.1288 109.554 31.8018C109.881 31.4884 110.127 31.0796 110.29 30.5755L110.474 29.9419L106.529 20.0291H108.921L110.658 24.9548C110.808 25.3909 110.951 25.8541 111.087 26.3447C111.237 26.8216 111.387 27.2985 111.537 27.7754H111.619C111.741 27.3121 111.864 26.842 111.986 26.3651C112.123 25.8746 112.252 25.4045 112.375 24.9548L113.887 20.0291H116.156L112.518 30.5142C112.095 31.6451 111.584 32.5376 110.985 33.1916C110.385 33.8593 109.541 34.1931 108.451 34.1931Z" fill="black"/>
<path d="M126.096 30.3098C125.264 30.3098 124.488 30.1054 123.766 29.6966C123.043 29.2742 122.457 28.6747 122.008 27.898C121.558 27.1077 121.333 26.1607 121.333 25.057C121.333 23.9397 121.558 22.9927 122.008 22.2161C122.457 21.4258 123.043 20.8262 123.766 20.4174C124.488 19.995 125.264 19.7838 126.096 19.7838C126.94 19.7838 127.724 19.995 128.446 20.4174C129.168 20.8262 129.754 21.4258 130.204 22.2161C130.653 22.9927 130.878 23.9397 130.878 25.057C130.878 26.1607 130.653 27.1077 130.204 27.898C129.754 28.6747 129.168 29.2742 128.446 29.6966C127.724 30.1054 126.94 30.3098 126.096 30.3098ZM126.096 28.3885C126.831 28.3885 127.41 28.082 127.833 27.4688C128.255 26.8556 128.466 26.0517 128.466 25.057C128.466 24.0487 128.255 23.238 127.833 22.6248C127.41 22.0117 126.831 21.7051 126.096 21.7051C125.36 21.7051 124.781 22.0117 124.358 22.6248C123.949 23.238 123.745 24.0487 123.745 25.057C123.745 26.0517 123.949 26.8556 124.358 27.4688C124.781 28.082 125.36 28.3885 126.096 28.3885Z" fill="black"/>
<path d="M133.205 30.0645V20.0291H135.146L135.31 21.3781H135.392C135.841 20.942 136.332 20.5673 136.863 20.2539C137.395 19.9405 138.001 19.7838 138.682 19.7838C139.759 19.7838 140.542 20.1313 141.033 20.8262C141.523 21.5211 141.769 22.5022 141.769 23.7694V30.0645H139.418V24.076C139.418 23.2448 139.295 22.6589 139.05 22.3182C138.805 21.9776 138.403 21.8073 137.844 21.8073C137.408 21.8073 137.02 21.9163 136.679 22.1343C136.352 22.3387 135.978 22.6453 135.555 23.054V30.0645H133.205Z" fill="black"/>
<path d="M148.938 30.0645V16.6976H151.309V22.073H156.725V16.6976H159.096V30.0645H156.725V24.1373H151.309V30.0645H148.938Z" fill="black"/>
<path d="M162.49 30.0645V16.6976H170.564V18.7006H164.861V22.4818H169.726V24.4848H164.861V30.0645H162.49Z" fill="black"/>
<path d="M180.905 30.3098C180.006 30.3098 179.133 30.1395 178.289 29.7988C177.457 29.4582 176.722 28.9745 176.081 28.3477L177.471 26.733C177.948 27.1827 178.493 27.5506 179.106 27.8367C179.719 28.1092 180.333 28.2455 180.946 28.2455C181.709 28.2455 182.288 28.0888 182.683 27.7754C183.078 27.462 183.276 27.0464 183.276 26.5286C183.276 25.97 183.078 25.568 182.683 25.3227C182.301 25.0775 181.811 24.8254 181.211 24.5665L179.372 23.7694C178.936 23.5786 178.507 23.3334 178.084 23.0336C177.675 22.7338 177.335 22.3523 177.062 21.889C176.803 21.4258 176.674 20.8671 176.674 20.2131C176.674 19.5045 176.865 18.8709 177.246 18.3123C177.641 17.74 178.173 17.2903 178.84 16.9633C179.522 16.6227 180.298 16.4523 181.171 16.4523C181.947 16.4523 182.697 16.609 183.419 16.9224C184.141 17.2222 184.761 17.631 185.279 18.1488L184.073 19.6612C183.65 19.3069 183.201 19.0276 182.724 18.8232C182.261 18.6188 181.743 18.5166 181.171 18.5166C180.544 18.5166 180.033 18.6597 179.638 18.9459C179.256 19.2184 179.065 19.5999 179.065 20.0904C179.065 20.4311 179.161 20.7172 179.351 20.9489C179.556 21.1669 179.822 21.3576 180.149 21.5211C180.476 21.671 180.823 21.8209 181.191 21.9708L183.01 22.727C183.8 23.0677 184.448 23.5173 184.952 24.076C185.456 24.621 185.708 25.3772 185.708 26.3447C185.708 27.0668 185.517 27.7277 185.136 28.3272C184.754 28.9268 184.202 29.4105 183.48 29.7784C182.772 30.1326 181.913 30.3098 180.905 30.3098Z" fill="black"/>
<path d="M187.934 34.0296V20.0291H189.876L190.039 21.0919H190.121C190.543 20.7377 191.014 20.4311 191.531 20.1722C192.063 19.9133 192.601 19.7838 193.146 19.7838C194.4 19.7838 195.367 20.2471 196.048 21.1737C196.743 22.1002 197.091 23.3402 197.091 24.8935C197.091 26.0381 196.886 27.0192 196.478 27.8367C196.069 28.6406 195.537 29.2538 194.883 29.6762C194.243 30.0986 193.548 30.3098 192.799 30.3098C192.363 30.3098 191.926 30.2144 191.49 30.0236C191.054 29.8193 190.632 29.5467 190.223 29.2061L190.285 30.8821V34.0296H187.934ZM192.308 28.3681C192.976 28.3681 193.534 28.0752 193.984 27.4892C194.434 26.9033 194.658 26.0449 194.658 24.914C194.658 23.9057 194.488 23.1222 194.148 22.5635C193.807 22.0049 193.255 21.7255 192.492 21.7255C191.783 21.7255 191.048 22.1002 190.285 22.8497V27.5301C190.652 27.8299 191.007 28.0479 191.347 28.1842C191.688 28.3068 192.008 28.3681 192.308 28.3681Z" fill="black"/>
<path d="M201.664 30.3098C200.791 30.3098 200.076 30.0373 199.517 29.4922C198.972 28.9472 198.7 28.2387 198.7 27.3666C198.7 26.2902 199.17 25.459 200.11 24.8731C201.05 24.2736 202.549 23.8648 204.607 23.6468C204.593 23.1154 204.45 22.6589 204.177 22.2774C203.919 21.8822 203.449 21.6846 202.767 21.6846C202.277 21.6846 201.793 21.78 201.316 21.9708C200.853 22.1616 200.396 22.3932 199.947 22.6657L199.088 21.0919C199.647 20.7377 200.274 20.4311 200.969 20.1722C201.677 19.9133 202.427 19.7838 203.217 19.7838C204.47 19.7838 205.404 20.1586 206.017 20.908C206.644 21.6438 206.957 22.7134 206.957 24.1169V30.0645H205.015L204.852 28.9608H204.77C204.321 29.3423 203.837 29.6626 203.319 29.9214C202.815 30.1803 202.263 30.3098 201.664 30.3098ZM202.42 28.4703C202.829 28.4703 203.196 28.3749 203.523 28.1842C203.864 27.9798 204.225 27.7073 204.607 27.3666V25.1184C203.244 25.2955 202.297 25.5612 201.766 25.9155C201.234 26.2561 200.969 26.6785 200.969 27.1827C200.969 27.6323 201.105 27.9593 201.377 28.1637C201.65 28.3681 201.997 28.4703 202.42 28.4703Z" fill="black"/>
<path d="M213.96 30.3098C213.047 30.3098 212.223 30.1054 211.487 29.6966C210.765 29.2742 210.186 28.6747 209.75 27.898C209.327 27.1077 209.116 26.1607 209.116 25.057C209.116 23.9397 209.348 22.9927 209.811 22.2161C210.274 21.4258 210.887 20.8262 211.65 20.4174C212.427 19.995 213.258 19.7838 214.144 19.7838C214.784 19.7838 215.343 19.8929 215.82 20.1109C216.297 20.3289 216.719 20.5946 217.087 20.908L215.943 22.4409C215.684 22.2092 215.418 22.0321 215.145 21.9095C214.873 21.7732 214.58 21.7051 214.267 21.7051C213.463 21.7051 212.802 22.0117 212.284 22.6248C211.78 23.238 211.528 24.0487 211.528 25.057C211.528 26.0517 211.773 26.8556 212.264 27.4688C212.768 28.082 213.415 28.3885 214.205 28.3885C214.6 28.3885 214.968 28.3068 215.309 28.1433C215.663 27.9661 215.983 27.7618 216.27 27.5301L217.23 29.0835C216.767 29.4922 216.249 29.7988 215.677 30.0032C215.105 30.2076 214.532 30.3098 213.96 30.3098Z" fill="black"/>
<path d="M223.004 30.3098C222.078 30.3098 221.24 30.1054 220.49 29.6966C219.741 29.2742 219.148 28.6747 218.712 27.898C218.276 27.1077 218.058 26.1607 218.058 25.057C218.058 23.967 218.276 23.0268 218.712 22.2365C219.162 21.4462 219.741 20.8398 220.449 20.4174C221.158 19.995 221.9 19.7838 222.677 19.7838C223.59 19.7838 224.353 19.9882 224.966 20.397C225.579 20.7922 226.043 21.3508 226.356 22.073C226.669 22.7815 226.826 23.6059 226.826 24.5461C226.826 25.0366 226.792 25.4181 226.724 25.6906H220.347C220.456 26.5763 220.776 27.2644 221.308 27.7549C221.839 28.2455 222.507 28.4907 223.311 28.4907C223.747 28.4907 224.149 28.4294 224.517 28.3068C224.898 28.1705 225.273 27.9866 225.641 27.7549L226.438 29.2265C225.961 29.5399 225.429 29.7988 224.844 30.0032C224.258 30.2076 223.644 30.3098 223.004 30.3098ZM220.327 24.0964H224.782C224.782 23.3197 224.612 22.7134 224.271 22.2774C223.931 21.8277 223.42 21.6029 222.738 21.6029C222.152 21.6029 221.628 21.8209 221.165 22.2569C220.715 22.6793 220.436 23.2925 220.327 24.0964Z" fill="black"/>
<path d="M231.871 30.3098C231.19 30.3098 230.509 30.1803 229.827 29.9214C229.146 29.6489 228.56 29.3151 228.07 28.92L229.173 27.4075C229.623 27.7481 230.073 28.0206 230.522 28.225C230.972 28.4294 231.449 28.5316 231.953 28.5316C232.498 28.5316 232.9 28.4158 233.159 28.1842C233.418 27.9525 233.547 27.6664 233.547 27.3257C233.547 27.0396 233.438 26.808 233.22 26.6308C233.016 26.4401 232.75 26.2765 232.423 26.1403C232.096 25.9904 231.755 25.8473 231.401 25.7111C230.965 25.5476 230.529 25.35 230.093 25.1184C229.671 24.8731 229.323 24.5665 229.051 24.1986C228.778 23.8171 228.642 23.347 228.642 22.7883C228.642 21.9027 228.969 21.1805 229.623 20.6218C230.277 20.0632 231.163 19.7838 232.28 19.7838C232.988 19.7838 233.622 19.9065 234.181 20.1517C234.739 20.397 235.223 20.6763 235.632 20.9897L234.549 22.4204C234.194 22.1616 233.833 21.9572 233.465 21.8073C233.111 21.6438 232.736 21.562 232.341 21.562C231.837 21.562 231.462 21.671 231.217 21.889C230.972 22.0934 230.849 22.3523 230.849 22.6657C230.849 23.0609 231.054 23.3606 231.462 23.565C231.871 23.7694 232.348 23.967 232.893 24.1577C233.356 24.3212 233.806 24.5256 234.242 24.7709C234.678 25.0025 235.039 25.3091 235.325 25.6906C235.625 26.0722 235.775 26.5763 235.775 27.2031C235.775 28.0615 235.441 28.7973 234.773 29.4105C234.106 30.01 233.138 30.3098 231.871 30.3098Z" fill="black"/>
<path d="M26.9675 25.0862V28.7744H30.6556V25.0862H26.9675Z" fill="#FF3270"/>
<path d="M34.3764 25.0862V28.7744H38.0646V25.0862H34.3764Z" fill="#861FFF"/>
<path d="M26.9675 17.6776V21.3658H30.6556V17.6776H26.9675Z" fill="#097EFF"/>
<path fill-rule="evenodd" clip-rule="evenodd" d="M24.3871 16.7346C24.3871 15.8301 25.1204 15.0968 26.0249 15.0968H31.5987C32.3553 15.0968 32.9921 15.6097 33.1801 16.3068C33.9729 15.5568 35.043 15.0968 36.2206 15.0968C38.6642 15.0968 40.6453 17.0778 40.6453 19.5215C40.6453 20.699 40.1853 21.7692 39.4352 22.5619C40.1323 22.7501 40.6453 23.3868 40.6453 24.1434V29.7171C40.6453 30.6217 39.912 31.355 39.0074 31.355H33.2365H31.7958H26.0249C25.1204 31.355 24.3871 30.6217 24.3871 29.7171V22.6559V22.5055V16.7346ZM26.9677 17.6774V21.3656H30.6559V17.6774H26.9677ZM26.9677 28.7743V25.0861H30.6559V28.7743H26.9677ZM34.3764 28.7743V25.0861H38.0646V28.7743H34.3764ZM34.3764 19.5215C34.3764 18.503 35.2021 17.6774 36.2206 17.6774C37.239 17.6774 38.0646 18.503 38.0646 19.5215C38.0646 20.54 37.239 21.3656 36.2206 21.3656C35.2021 21.3656 34.3764 20.54 34.3764 19.5215Z" fill="black"/>
<path d="M36.2205 17.6776C35.2021 17.6776 34.3764 18.5033 34.3764 19.5218C34.3764 20.5402 35.2021 21.3658 36.2205 21.3658C37.2389 21.3658 38.0646 20.5402 38.0646 19.5218C38.0646 18.5033 37.2389 17.6776 36.2205 17.6776Z" fill="#FFD702"/>
</svg>
