<svg width="32" height="32" viewBox="0 0 32 32" fill="none" xmlns="http://www.w3.org/2000/svg">
<rect width="32" height="32" rx="4" fill="#431D93"/>
<path d="M26.6878 19.5218C27.1768 18.0312 27.3496 16.455 27.1952 14.8939C27.0409 13.3328 26.5627 11.821 25.7914 10.455L18.0517 10.259V10.1622L25.5014 9.97347C24.6017 8.55714 23.3981 7.35869 21.978 6.46497L15.9998 6.31495V6.21857L21.313 6.08428C19.1359 4.91725 16.6352 4.49947 14.197 4.89547C11.7588 5.29147 9.51879 6.47922 7.82298 8.27527L14.5089 8.44465V8.54144L7.42333 8.71888C5.69428 10.7505 4.74641 13.3322 4.75001 16C4.75001 16.121 4.75001 16.238 4.75606 16.3565C4.75562 16.3644 4.75562 16.3724 4.75606 16.3803L7.42656 16.4481V16.5448L4.76493 16.6122C4.76536 16.6201 4.76536 16.6281 4.76493 16.636C4.86219 18.3916 5.37186 20.0995 6.25262 21.6213L10.7036 21.7338V21.8306L6.44337 21.9387C7.48834 23.6164 8.95524 24.9905 10.6975 25.9238C10.8363 25.9992 10.9766 26.0706 11.119 26.1392V16.7941H12.1981C12.2397 16.794 12.2808 16.8022 12.3192 16.818C12.3576 16.8339 12.3924 16.8572 12.4218 16.8866C12.4512 16.9159 12.4745 16.9508 12.4903 16.9892C12.5062 17.0276 12.5143 17.0687 12.5143 17.1102V26.6993C14.7801 27.4336 17.2199 27.4336 19.4857 26.6993V17.1102C19.4857 17.0687 19.4938 17.0276 19.5097 16.9892C19.5256 16.9508 19.5488 16.9159 19.5782 16.8866C19.6076 16.8572 19.6425 16.8339 19.6808 16.818C19.7192 16.8022 19.7604 16.794 19.8019 16.7941H20.8803V26.1404C21.0206 26.0726 21.1605 26.0017 21.2972 25.9279C22.3975 25.3401 23.3924 24.5735 24.2412 23.6594L21.4469 23.5885V23.4917L24.4618 23.4155C25.3867 22.362 26.106 21.1447 26.5826 19.8263L22.5595 19.7243V19.6275L26.6878 19.5218ZM22.4409 16.4973H9.55908L9.32639 15.5673H11.119V14.5704H11.4851C11.6158 14.5705 11.7452 14.5963 11.866 14.6463C11.9867 14.6964 12.0964 14.7697 12.1888 14.8622C12.2812 14.9547 12.3544 15.0644 12.4044 15.1852C12.4544 15.306 12.4801 15.4354 12.48 15.5661H15.3029V14.2385H8.46419C8.3307 13.1759 7.69998 12.3459 7.69998 12.3459C9.55908 12.777 15.9998 12.8105 15.9998 12.8105C15.9998 12.8105 22.4405 12.777 24.2988 12.3459C24.2988 12.3459 23.6693 13.1759 23.5358 14.2385H16.6975V15.5665H19.5204C19.5204 15.4357 19.5462 15.3062 19.5962 15.1854C19.6463 15.0645 19.7197 14.9548 19.8122 14.8623C19.9047 14.7698 20.0145 14.6965 20.1353 14.6465C20.2562 14.5965 20.3857 14.5708 20.5165 14.5708H20.8819V15.5665H22.6752L22.4409 16.4973Z" fill="white"/>
</svg>
