<svg width="558" height="558" viewBox="0 0 558 558" fill="none" xmlns="http://www.w3.org/2000/svg">
<path d="M544 366.309C556.124 329.347 560.409 290.262 556.581 251.551C552.754 212.84 540.898 175.351 521.77 141.479L329.85 136.619V134.219L514.58 129.539C492.269 94.4184 462.425 64.7006 427.21 42.5391L279 38.8291V36.4291L410.72 33.0991C356.738 4.15295 294.728 -6.21454 234.267 3.5979C173.805 13.4103 118.256 42.8567 76.1998 87.3891L242 91.5891V93.9991L66.2898 98.4291C23.4104 148.813 -0.0942361 212.839 -0.000207255 278.999C-0.000207255 281.999 -0.00020726 284.899 0.149793 287.839C0.13892 288.036 0.13892 288.233 0.149793 288.429L66.3098 290.109V292.509L0.399793 294.159C0.410446 294.356 0.410446 294.553 0.399793 294.749C2.80379 338.284 15.4353 380.639 37.2698 418.379L147.64 421.169V423.569L41.9998 426.239C67.9118 467.841 104.286 501.916 147.49 525.059C150.93 526.929 154.41 528.699 157.94 530.399V298.669H184.7C185.73 298.668 186.75 298.87 187.702 299.263C188.653 299.657 189.518 300.234 190.246 300.962C190.975 301.691 191.552 302.556 191.946 303.507C192.339 304.459 192.541 305.479 192.54 306.509V544.289C248.725 562.496 309.225 562.496 365.41 544.289V306.509C365.408 305.479 365.61 304.459 366.004 303.507C366.397 302.556 366.975 301.691 367.703 300.962C368.431 300.234 369.296 299.657 370.248 299.263C371.2 298.87 372.22 298.668 373.25 298.669H400V530.399C403.48 528.719 406.95 526.959 410.34 525.129C437.623 510.555 462.293 491.546 483.34 468.879L414 467.119V464.719L488.76 462.829C511.695 436.708 529.533 406.52 541.35 373.829L441.59 371.299V368.899L544 366.309ZM438.69 291.309H119.26L113.49 268.249H157.94V243.529H167C170.241 243.53 173.45 244.17 176.444 245.412C179.437 246.653 182.157 248.472 184.448 250.765C186.739 253.057 188.556 255.779 189.795 258.774C191.034 261.768 191.671 264.978 191.67 268.219H261.67V235.299H92.0998C88.7898 208.949 73.1498 188.369 73.1498 188.369C119.26 199.059 279 199.889 279 199.889C279 199.889 438.71 199.059 484.79 188.369C484.79 188.369 469.18 208.949 465.87 235.299H296.26V268.229H366.26C366.26 264.986 366.899 261.775 368.14 258.778C369.382 255.782 371.201 253.06 373.495 250.767C375.789 248.474 378.512 246.656 381.508 245.416C384.505 244.175 387.717 243.538 390.96 243.539H400V268.229H444.47L438.69 291.309Z" fill="#431D93"/>
<path d="M0 552.067L4.36 550.687L8.72 549.457L17.44 546.997C23.25 545.497 29.06 543.997 34.88 542.747C46.5 540.047 58.13 537.797 69.75 535.657C93 531.487 116.24 528.367 139.49 525.837C185.836 521.017 232.404 518.653 279 518.757C325.577 518.752 372.124 521.168 418.45 525.997C441.7 528.547 464.94 531.657 488.19 535.817C499.81 537.947 511.44 540.187 523.06 542.867C528.87 544.157 534.68 545.607 540.5 547.097L549.22 549.517L553.58 550.737L557.94 552.107V555.997L488.2 556.997L418.46 557.347L279 557.937L139.52 557.287L69.78 556.947L0 555.997V552.067Z" fill="#424240"/>
</svg>
